<?xml version="1.0"?>
<svg xmlns="http://www.w3.org/2000/svg" xmlns:xlink="http://www.w3.org/1999/xlink" xmlns:svgjs="http://svgjs.com/svgjs" version="1.1" width="512" height="512" x="0" y="0" viewBox="0 0 512.006 512.006" style="enable-background:new 0 0 512 512" xml:space="preserve" class=""><g><g xmlns="http://www.w3.org/2000/svg"><path d="m111.331 117.983h80.317v30h-80.317z" fill="#e58118" data-original="#000000" style="" class=""/><path d="m111.331 178.987h159.58v30h-159.58z" fill="#e58118" data-original="#000000" style="" class=""/><path d="m111.331 239.991h159.58v30h-159.58z" fill="#e58118" data-original="#000000" style="" class=""/><path d="m111.331 300.995h159.58v30h-159.58z" fill="#e58118" data-original="#000000" style="" class=""/><path d="m487.76 116.78c0-64.393-52.386-116.78-116.778-116.78-32.352 0-61.67 13.227-82.839 34.554h-263.897l1.341 373.147c0 57.514 46.79 104.305 104.303 104.305h258.074v-165.17l41.614 23.666v-152.74c34.763-20.251 58.182-57.931 58.182-100.982zm-431.045 303.7c7.501 3.693 15.825 5.655 24.486 5.655h32.249v29.338c0 9.3 2.274 18.074 6.274 25.821-31.961-4.396-57.49-29.185-63.009-60.814zm113.331 61.526c-14.665 0-26.596-11.903-26.596-26.534v-59.338h-62.249c-6.865 0-13.251-2.644-17.983-7.443-5.026-5.099-7.736-12.035-7.629-19.531l-1.235-304.606h212.202c-7.896 15.725-12.35 33.464-12.35 52.226 0 44.667 25.211 83.55 62.146 103.186v150.53l41.613-23.654v135.164zm229.532-163.077-26.601-15.128-26.626 15.135v-87.998c7.944 1.713 16.183 2.623 24.632 2.623 9.863 0 19.441-1.234 28.596-3.547v88.915zm-28.596-115.369c-47.849 0-86.778-38.93-86.778-86.78s38.929-86.78 86.778-86.78 86.778 38.929 86.778 86.78-38.928 86.78-86.778 86.78z" fill="#e58118" data-original="#000000" style="" class=""/><path d="m370.982 59.871c-31.379 0-56.907 25.529-56.907 56.909s25.529 56.909 56.907 56.909c31.379 0 56.907-25.529 56.907-56.909s-25.528-56.909-56.907-56.909zm0 83.817c-14.837 0-26.908-12.071-26.908-26.909s12.071-26.909 26.908-26.909 26.908 12.071 26.908 26.909-12.07 26.909-26.908 26.909z" fill="#e58118" data-original="#000000" style="" class=""/></g></g></svg>
