<?xml version="1.0" encoding="UTF-8"?>
<!DOCTYPE svg PUBLIC "-//W3C//DTD SVG 1.1//EN" "http://www.w3.org/Graphics/SVG/1.1/DTD/svg11.dtd">
<!-- Creator: CorelDRAW 2020 (64-Bit) -->
<svg xmlns="http://www.w3.org/2000/svg" xml:space="preserve" width="99px" height="42px" version="1.1" style="shape-rendering:geometricPrecision; text-rendering:geometricPrecision; image-rendering:optimizeQuality; fill-rule:evenodd; clip-rule:evenodd"
viewBox="0 0 18.24 7.73"
 xmlns:xlink="http://www.w3.org/1999/xlink"
 xmlns:xodm="http://www.corel.com/coreldraw/odm/2003">
 <defs>
  <style type="text/css">
   <![CDATA[
    .fil1 {fill:#F8A200}
    .fil0 {fill:#F8A200;fill-rule:nonzero}
   ]]>
  </style>
 </defs>
 <g id="图层_x0020_1">
  <metadata id="CorelCorpID_0Corel-Layer"/>
  <g>
   <path class="fil0" d="M17.45 7.36l0 0.37 -16.65 0 0 -0.37 16.65 0zm0.79 -0.43l0 0 0 0.04 0 0.04 0 0.04 -0.01 0.04 -0.01 0.04 -0.01 0.04 -0.01 0.03 -0.02 0.04 -0.01 0.04 -0.02 0.03 -0.02 0.03 -0.02 0.04 -0.02 0.03 -0.03 0.03 -0.02 0.03 -0.03 0.02 -0.03 0.03 -0.03 0.02 -0.03 0.03 -0.03 0.02 -0.03 0.02 -0.03 0.02 -0.04 0.02 -0.03 0.01 -0.04 0.02 -0.04 0.01 -0.03 0.01 -0.04 0.01 -0.04 0.01 -0.04 0 -0.04 0.01 -0.04 0 0 -0.37 0.02 0 0.02 0 0.02 0 0.02 -0.01 0.03 0 0.02 -0.01 0.01 0 0.02 -0.01 0.02 -0.01 0.02 -0.01 0.02 -0.01 0.02 -0.01 0.02 -0.01 0.01 -0.02 0.02 -0.01 0.01 -0.02 0.02 -0.01 0.01 -0.02 0.01 -0.01 0.02 -0.02 0.01 -0.02 0.01 -0.02 0.01 -0.01 0 -0.02 0.01 -0.02 0.01 -0.02 0.01 -0.02 0 -0.02 0 -0.02 0.01 -0.03 0 -0.02 0 -0.02 0 0 0.36 0zm-0.36 -6.13l0.36 0 0 6.13 -0.36 0 0 -6.13zm-0.43 -0.8l0 0 0.04 0 0.04 0 0.04 0.01 0.04 0.01 0.04 0.01 0.03 0.01 0.04 0.01 0.04 0.01 0.03 0.02 0.04 0.02 0.03 0.02 0.03 0.02 0.03 0.02 0.03 0.02 0.03 0.03 0.03 0.02 0.03 0.03 0.02 0.03 0.02 0.03 0.03 0.03 0.02 0.03 0.02 0.04 0.01 0.03 0.02 0.04 0.02 0.03 0.01 0.04 0.01 0.04 0.01 0.04 0.01 0.04 0 0.04 0 0.04 0 0.04 -0.36 0 0 -0.03 0 -0.02 -0.01 -0.02 0 -0.02 0 -0.02 -0.01 -0.02 -0.01 -0.02 -0.01 -0.02 0 -0.02 -0.01 -0.02 -0.01 -0.02 -0.01 -0.01 -0.02 -0.02 -0.01 -0.02 -0.01 -0.01 -0.02 -0.02 -0.01 -0.01 -0.02 -0.02 -0.02 -0.01 -0.01 -0.01 -0.02 -0.01 -0.02 -0.01 -0.02 -0.01 -0.02 -0.01 -0.02 -0.01 -0.02 -0.01 -0.02 0 -0.02 -0.01 -0.02 0 -0.02 0 -0.02 0 -0.02 0 0 0 0 -0.37zm-16.65 0.37l0 -0.37 16.65 0 0 0.37 -16.65 0zm-0.8 0.43l0 0 0 -0.04 0 -0.04 0.01 -0.04 0.01 -0.04 0.01 -0.04 0.01 -0.04 0.01 -0.04 0.01 -0.03 0.02 -0.04 0.02 -0.03 0.02 -0.04 0.02 -0.03 0.02 -0.03 0.02 -0.03 0.03 -0.03 0.03 -0.03 0.02 -0.02 0.03 -0.03 0.03 -0.02 0.03 -0.02 0.04 -0.02 0.03 -0.02 0.03 -0.02 0.04 -0.02 0.03 -0.01 0.04 -0.01 0.04 -0.01 0.04 -0.01 0.04 -0.01 0.04 -0.01 0.04 0 0.04 0 0 0.37 -0.03 0 -0.02 0 -0.02 0 -0.02 0 -0.02 0.01 -0.02 0 -0.02 0.01 -0.02 0.01 -0.02 0.01 -0.02 0.01 -0.01 0.01 -0.02 0.01 -0.02 0.01 -0.02 0.01 -0.01 0.02 -0.02 0.01 -0.01 0.02 -0.01 0.01 -0.02 0.02 -0.01 0.02 -0.01 0.01 -0.01 0.02 -0.01 0.02 -0.01 0.02 -0.01 0.02 -0.01 0.02 0 0.02 -0.01 0.02 0 0.02 0 0.02 0 0.02 0 0.03 0 0 -0.37 0zm0.37 6.13l-0.37 0 0 -6.13 0.37 0 0 6.13zm0.43 0.8l0 0 -0.04 0 -0.04 -0.01 -0.05 0 -0.03 -0.01 -0.04 -0.01 -0.04 -0.01 -0.04 -0.01 -0.03 -0.02 -0.04 -0.01 -0.03 -0.02 -0.04 -0.02 -0.03 -0.02 -0.03 -0.02 -0.03 -0.02 -0.03 -0.03 -0.03 -0.03 -0.02 -0.02 -0.03 -0.03 -0.02 -0.03 -0.02 -0.03 -0.02 -0.04 -0.02 -0.03 -0.02 -0.03 -0.02 -0.04 -0.01 -0.04 -0.01 -0.03 -0.01 -0.04 -0.01 -0.04 -0.01 -0.04 -0.01 -0.04 0 -0.04 0 -0.04 0.37 0 0 0.02 0 0.03 0 0.02 0 0.02 0.01 0.02 0 0.02 0.01 0.02 0.01 0.02 0.01 0.02 0.01 0.02 0.01 0.01 0.01 0.02 0.01 0.02 0.01 0.01 0.02 0.02 0.01 0.02 0.02 0.01 0.01 0.01 0.02 0.02 0.02 0.01 0.01 0.01 0.02 0.01 0.02 0.01 0.02 0.01 0.02 0.01 0.02 0 0.02 0.01 0.02 0 0.02 0.01 0.02 0 0.02 0 0.03 0 0 0 0 0.37z"/>
   <path id="1" class="fil1" d="M0.8 7.54l16.65 0c0.34,0 0.61,-0.27 0.61,-0.61l0 -6.13c0,-0.34 -0.28,-0.62 -0.61,-0.62l-16.65 0c-0.34,0 -0.62,0.28 -0.62,0.62l0 6.13c0,0.34 0.28,0.61 0.62,0.61z"/>
  </g>
 </g>
</svg>
