<?xml version="1.0" encoding="UTF-8"?>
<!DOCTYPE svg PUBLIC "-//W3C//DTD SVG 1.1//EN" "http://www.w3.org/Graphics/SVG/1.1/DTD/svg11.dtd">
<!-- Creator: CorelDRAW 2020 (64-Bit) -->
<svg xmlns="http://www.w3.org/2000/svg" xml:space="preserve" width="159px" height="42px" version="1.1" style="shape-rendering:geometricPrecision; text-rendering:geometricPrecision; image-rendering:optimizeQuality; fill-rule:evenodd; clip-rule:evenodd"
viewBox="0 0 157.41 41.54"
 xmlns:xlink="http://www.w3.org/1999/xlink"
 xmlns:xodm="http://www.corel.com/coreldraw/odm/2003">
 <defs>
  <style type="text/css">
   <![CDATA[
    .fil1 {fill:white}
    .fil0 {fill:#1088E7;fill-rule:nonzero}
   ]]>
  </style>
 </defs>
 <g id="Layer_x0020_1">
  <metadata id="CorelCorpID_0Corel-Layer"/>
  <g>
   <path class="fil0" d="M153.13 1.96l-148.85 0 0 -1.96 148.85 0 0 0 0 1.96zm4.28 2.35l-1.96 0 0 0 0 -0.12 -0.01 -0.12 -0.02 -0.11 -0.02 -0.12 -0.02 -0.11 -0.04 -0.11 -0.03 -0.11 -0.04 -0.1 -0.05 -0.11 -0.05 -0.1 -0.06 -0.1 -0.06 -0.1 -0.06 -0.09 -0.07 -0.09 -0.08 -0.08 -0.07 -0.08 -0.09 -0.08 -0.08 -0.08 -0.09 -0.07 -0.09 -0.06 -0.09 -0.07 -0.1 -0.05 -0.1 -0.06 -0.1 -0.04 -0.11 -0.04 -0.11 -0.04 -0.1 -0.03 -0.11 -0.03 -0.12 -0.02 -0.11 -0.01 -0.12 -0.01 -0.12 -0.01 0 -1.96 0.22 0.01 0.22 0.01 0.22 0.03 0.21 0.04 0.2 0.05 0.21 0.06 0.2 0.07 0.19 0.07 0.19 0.09 0.19 0.1 0.18 0.1 0.17 0.12 0.17 0.12 0.16 0.13 0.16 0.13 0.14 0.15 0.14 0.14 0.14 0.16 0.12 0.16 0.12 0.17 0.12 0.18 0.1 0.18 0.09 0.18 0.09 0.19 0.07 0.2 0.07 0.2 0.06 0.2 0.05 0.21 0.03 0.21 0.03 0.22 0.02 0.21 0 0.22 0 0zm-1.96 32.92l0 -32.92 1.96 0 0 32.92 0 0 -1.96 0zm-2.32 4.31l0 -1.97 0 0 0.12 0 0.11 -0.01 0.12 -0.01 0.11 -0.02 0.11 -0.03 0.11 -0.03 0.1 -0.04 0.11 -0.04 0.1 -0.05 0.1 -0.05 0.1 -0.06 0.09 -0.06 0.09 -0.06 0.09 -0.08 0.09 -0.07 0.08 -0.08 0.08 -0.08 0.07 -0.09 0.07 -0.09 0.07 -0.09 0.06 -0.1 0.06 -0.09 0.05 -0.11 0.05 -0.1 0.04 -0.11 0.03 -0.1 0.04 -0.12 0.02 -0.11 0.02 -0.11 0.02 -0.12 0.01 -0.12 0 -0.11 1.96 0 0 0.22 -0.02 0.21 -0.03 0.22 -0.03 0.21 -0.05 0.21 -0.06 0.2 -0.07 0.2 -0.08 0.2 -0.08 0.19 -0.1 0.18 -0.1 0.18 -0.11 0.18 -0.12 0.17 -0.13 0.16 -0.13 0.15 -0.15 0.15 -0.14 0.15 -0.16 0.13 -0.16 0.13 -0.17 0.12 -0.17 0.11 -0.18 0.11 -0.19 0.1 -0.18 0.08 -0.2 0.08 -0.19 0.07 -0.21 0.06 -0.21 0.05 -0.21 0.04 -0.21 0.02 -0.22 0.02 -0.22 0.01 0 0zm-148.85 -1.97l148.85 0 0 1.97 -148.85 0 0 0 0 -1.97zm-4.28 -2.34l1.96 0 0 0 0.01 0.12 0.01 0.12 0.01 0.12 0.02 0.11 0.03 0.11 0.03 0.11 0.04 0.11 0.04 0.11 0.05 0.1 0.05 0.1 0.05 0.1 0.07 0.1 0.06 0.09 0.07 0.09 0.08 0.09 0.07 0.08 0.08 0.07 0.09 0.08 0.09 0.07 0.09 0.07 0.09 0.06 0.1 0.06 0.1 0.05 0.1 0.04 0.1 0.04 0.11 0.04 0.11 0.03 0.11 0.03 0.11 0.02 0.12 0.01 0.11 0.01 0.12 0 0 1.97 -0.22 -0.01 -0.22 -0.01 -0.21 -0.03 -0.21 -0.04 -0.21 -0.05 -0.2 -0.06 -0.19 -0.07 -0.2 -0.07 -0.19 -0.09 -0.19 -0.1 -0.17 -0.1 -0.18 -0.11 -0.16 -0.12 -0.17 -0.13 -0.15 -0.13 -0.15 -0.15 -0.14 -0.15 -0.14 -0.15 -0.12 -0.16 -0.12 -0.17 -0.11 -0.18 -0.11 -0.18 -0.09 -0.19 -0.09 -0.19 -0.08 -0.19 -0.07 -0.2 -0.05 -0.21 -0.05 -0.21 -0.04 -0.21 -0.03 -0.21 -0.01 -0.22 -0.01 -0.22 0 0zm1.96 -32.92l0 32.92 -1.96 0 0 -32.92 0 0 1.96 0zm2.32 -4.31l0 1.96 0 0 -0.12 0.01 -0.12 0 -0.11 0.02 -0.12 0.02 -0.11 0.03 -0.1 0.03 -0.11 0.04 -0.11 0.04 -0.1 0.04 -0.1 0.05 -0.09 0.06 -0.1 0.06 -0.09 0.07 -0.09 0.07 -0.08 0.07 -0.08 0.08 -0.08 0.08 -0.08 0.09 -0.06 0.09 -0.07 0.09 -0.06 0.09 -0.06 0.1 -0.05 0.1 -0.04 0.11 -0.05 0.1 -0.03 0.11 -0.03 0.12 -0.03 0.11 -0.02 0.11 -0.01 0.12 -0.01 0.12 -0.01 0.12 -1.96 0 0.01 -0.22 0.01 -0.22 0.03 -0.21 0.04 -0.22 0.05 -0.21 0.05 -0.19 0.07 -0.21 0.08 -0.19 0.08 -0.19 0.1 -0.19 0.1 -0.18 0.11 -0.17 0.12 -0.18 0.13 -0.16 0.13 -0.15 0.14 -0.15 0.15 -0.15 0.16 -0.13 0.16 -0.13 0.17 -0.12 0.17 -0.11 0.18 -0.1 0.18 -0.1 0.19 -0.09 0.2 -0.08 0.19 -0.06 0.21 -0.06 0.21 -0.05 0.21 -0.04 0.21 -0.03 0.22 -0.01 0.22 -0.01 0 0z"/>
   <path id="1" class="fil1" d="M4.28 0.98l148.85 0c1.82,0 3.3,1.51 3.3,3.33l0 32.92c0,1.81 -1.5,3.33 -3.3,3.33l-148.85 0c-1.8,0 -3.3,-1.5 -3.3,-3.33l0 -32.92c0,-1.84 1.48,-3.33 3.3,-3.33z"/>
  </g>
  <g>
   <path class="fil0" d="M153.13 1.96l-148.85 0 0 -1.96 148.85 0 0 0 0 1.96zm4.28 2.35l-1.96 0 0 0 0 -0.12 -0.01 -0.12 -0.02 -0.11 -0.02 -0.12 -0.02 -0.11 -0.04 -0.11 -0.03 -0.11 -0.04 -0.1 -0.05 -0.11 -0.05 -0.1 -0.06 -0.1 -0.06 -0.1 -0.06 -0.09 -0.07 -0.09 -0.08 -0.08 -0.07 -0.08 -0.09 -0.08 -0.08 -0.08 -0.09 -0.07 -0.09 -0.06 -0.09 -0.07 -0.1 -0.05 -0.1 -0.06 -0.1 -0.04 -0.11 -0.04 -0.11 -0.04 -0.1 -0.03 -0.11 -0.03 -0.12 -0.02 -0.11 -0.01 -0.12 -0.01 -0.12 -0.01 0 -1.96 0.22 0.01 0.22 0.01 0.22 0.03 0.21 0.04 0.2 0.05 0.21 0.06 0.2 0.07 0.19 0.07 0.19 0.09 0.19 0.1 0.18 0.1 0.17 0.12 0.17 0.12 0.16 0.13 0.16 0.13 0.14 0.15 0.14 0.14 0.14 0.16 0.12 0.16 0.12 0.17 0.12 0.18 0.1 0.18 0.09 0.18 0.09 0.19 0.07 0.2 0.07 0.2 0.06 0.2 0.05 0.21 0.03 0.21 0.03 0.22 0.02 0.21 0 0.22 0 0zm-1.96 32.92l0 -32.92 1.96 0 0 32.92 0 0 -1.96 0zm-2.32 4.31l0 -1.97 0 0 0.12 0 0.11 -0.01 0.12 -0.01 0.11 -0.02 0.11 -0.03 0.11 -0.03 0.1 -0.04 0.11 -0.04 0.1 -0.05 0.1 -0.05 0.1 -0.06 0.09 -0.06 0.09 -0.06 0.09 -0.08 0.09 -0.07 0.08 -0.08 0.08 -0.08 0.07 -0.09 0.07 -0.09 0.07 -0.09 0.06 -0.1 0.06 -0.09 0.05 -0.11 0.05 -0.1 0.04 -0.11 0.03 -0.1 0.04 -0.12 0.02 -0.11 0.02 -0.11 0.02 -0.12 0.01 -0.12 0 -0.11 1.96 0 0 0.22 -0.02 0.21 -0.03 0.22 -0.03 0.21 -0.05 0.21 -0.06 0.2 -0.07 0.2 -0.08 0.2 -0.08 0.19 -0.1 0.18 -0.1 0.18 -0.11 0.18 -0.12 0.17 -0.13 0.16 -0.13 0.15 -0.15 0.15 -0.14 0.15 -0.16 0.13 -0.16 0.13 -0.17 0.12 -0.17 0.11 -0.18 0.11 -0.19 0.1 -0.18 0.08 -0.2 0.08 -0.19 0.07 -0.21 0.06 -0.21 0.05 -0.21 0.04 -0.21 0.02 -0.22 0.02 -0.22 0.01 0 0zm-148.85 -1.97l148.85 0 0 1.97 -148.85 0 0 0 0 -1.97zm-4.28 -2.34l1.96 0 0 0 0.01 0.12 0.01 0.12 0.01 0.12 0.02 0.11 0.03 0.11 0.03 0.11 0.04 0.11 0.04 0.11 0.05 0.1 0.05 0.1 0.05 0.1 0.07 0.1 0.06 0.09 0.07 0.09 0.08 0.09 0.07 0.08 0.08 0.07 0.09 0.08 0.09 0.07 0.09 0.07 0.09 0.06 0.1 0.06 0.1 0.05 0.1 0.04 0.1 0.04 0.11 0.04 0.11 0.03 0.11 0.03 0.11 0.02 0.12 0.01 0.11 0.01 0.12 0 0 1.97 -0.22 -0.01 -0.22 -0.01 -0.21 -0.03 -0.21 -0.04 -0.21 -0.05 -0.2 -0.06 -0.19 -0.07 -0.2 -0.07 -0.19 -0.09 -0.19 -0.1 -0.17 -0.1 -0.18 -0.11 -0.16 -0.12 -0.17 -0.13 -0.15 -0.13 -0.15 -0.15 -0.14 -0.15 -0.14 -0.15 -0.12 -0.16 -0.12 -0.17 -0.11 -0.18 -0.11 -0.18 -0.09 -0.19 -0.09 -0.19 -0.08 -0.19 -0.07 -0.2 -0.05 -0.21 -0.05 -0.21 -0.04 -0.21 -0.03 -0.21 -0.01 -0.22 -0.01 -0.22 0 0zm1.96 -32.92l0 32.92 -1.96 0 0 -32.92 0 0 1.96 0zm2.32 -4.31l0 1.96 0 0 -0.12 0.01 -0.12 0 -0.11 0.02 -0.12 0.02 -0.11 0.03 -0.1 0.03 -0.11 0.04 -0.11 0.04 -0.1 0.04 -0.1 0.05 -0.09 0.06 -0.1 0.06 -0.09 0.07 -0.09 0.07 -0.08 0.07 -0.08 0.08 -0.08 0.08 -0.08 0.09 -0.06 0.09 -0.07 0.09 -0.06 0.09 -0.06 0.1 -0.05 0.1 -0.04 0.11 -0.05 0.1 -0.03 0.11 -0.03 0.12 -0.03 0.11 -0.02 0.11 -0.01 0.12 -0.01 0.12 -0.01 0.12 -1.96 0 0.01 -0.22 0.01 -0.22 0.03 -0.21 0.04 -0.22 0.05 -0.21 0.05 -0.19 0.07 -0.21 0.08 -0.19 0.08 -0.19 0.1 -0.19 0.1 -0.18 0.11 -0.17 0.12 -0.18 0.13 -0.16 0.13 -0.15 0.14 -0.15 0.15 -0.15 0.16 -0.13 0.16 -0.13 0.17 -0.12 0.17 -0.11 0.18 -0.1 0.18 -0.1 0.19 -0.09 0.2 -0.08 0.19 -0.06 0.21 -0.06 0.21 -0.05 0.21 -0.04 0.21 -0.03 0.22 -0.01 0.22 -0.01 0 0z"/>
  </g>
 </g>
</svg>
