<?xml version="1.0" encoding="UTF-8"?>
<!DOCTYPE svg PUBLIC "-//W3C//DTD SVG 1.1//EN" "http://www.w3.org/Graphics/SVG/1.1/DTD/svg11.dtd">
<!-- Creator: CorelDRAW 2020 (64-Bit) -->
<svg xmlns="http://www.w3.org/2000/svg" xml:space="preserve" width="80px" height="80px" version="1.1" style="shape-rendering:geometricPrecision; text-rendering:geometricPrecision; image-rendering:optimizeQuality; fill-rule:evenodd; clip-rule:evenodd"
viewBox="0 0 78.35 78.35"
 xmlns:xlink="http://www.w3.org/1999/xlink"
 xmlns:xodm="http://www.corel.com/coreldraw/odm/2003">
 <defs>
  <style type="text/css">
   <![CDATA[
    .str2 {stroke:white;stroke-width:2.55;stroke-linecap:round;stroke-linejoin:round;stroke-miterlimit:2.61313}
    .str3 {stroke:white;stroke-width:2.55;stroke-linecap:round;stroke-linejoin:round;stroke-miterlimit:2.61313}
    .str1 {stroke:white;stroke-width:2.55;stroke-linecap:round;stroke-linejoin:round;stroke-miterlimit:2.61313}
    .str0 {stroke:white;stroke-width:2.55;stroke-linecap:round;stroke-linejoin:round;stroke-miterlimit:2.61313}
    .fil1 {fill:none}
    .fil0 {fill:#33CC33}
    .fil2 {fill:white}
   ]]>
  </style>
 </defs>
 <g id="Layer_x0020_1">
  <metadata id="CorelCorpID_0Corel-Layer"/>
  <g id="_2446819331248">
   <circle class="fil0" cx="39.17" cy="39.17" r="39.17"/>
   <g>
    <g>
     <g>
      <polygon class="fil1 str0" points="17.21,29.72 30.86,29.72 41.18,40.05 41.18,57.2 17.21,57.2 "/>
     </g>
     <g>
      <polygon class="fil1 str1" points="30.86,29.72 41.18,40.05 30.86,40.05 "/>
     </g>
     <polygon class="fil2" points="22.6,42.01 24.64,42.01 26.68,42.01 26.68,44.05 24.64,44.05 22.6,44.05 "/>
     <path class="fil2" d="M22.6 50.18c3.4,0 6.8,0 10.21,0l0 -2.04c-3.41,0 -6.81,0 -10.21,0l0 2.04z"/>
     <g>
      <polyline class="fil1 str2" points="27.37,25.01 27.37,20.48 41.01,20.48 51.34,30.8 51.34,47.96 "/>
     </g>
     <g>
      <polygon class="fil1 str3" points="41.01,20.48 51.34,30.8 41.01,30.8 "/>
     </g>
    </g>
    <g>
     <path class="fil2" d="M56.11 56.2c-5.47,0 -2.94,0 -8.42,0 1.78,-1.82 3.56,-3.64 5.33,-5.47 0.32,0 0.62,-0.21 0.74,-0.5 4.01,-9.62 8.02,-19.23 12.02,-28.85 0.04,-0.08 0.06,-0.16 0.07,-0.23 0.69,-2.26 -0.22,-4.74 -2.51,-5.69 -2.27,-0.95 -4.97,0.17 -5.92,2.44 -4.01,9.61 -8.01,19.23 -12.02,28.84 -0.12,0.3 -0.05,0.64 0.16,0.87 -0.05,2.86 -0.1,5.73 -0.15,8.59 -7.85,0 -2.84,0 -10.69,0 -1.16,0 -1.16,2.23 0,2.23 14.09,0 7.3,0 21.39,0 1.16,0 1.16,-2.23 0,-2.23z"/>
     <path class="fil2" d="M64.44 19.94c-1.7,-0.71 -3.4,-1.42 -5.1,-2.13 1.65,-2.16 5.34,-0.61 5.1,2.13z"/>
     <path class="fil2" d="M58.62 19.28c1.78,0.74 3.55,1.49 5.33,2.23 -3.79,9.11 -7.59,18.22 -11.39,27.33 -1.78,-0.74 -3.55,-1.48 -5.33,-2.22 3.79,-9.11 7.6,-18.22 11.39,-27.34z"/>
     <path class="fil2" d="M47.17 48.71c1.31,0.55 2.63,1.1 3.94,1.65 -0.75,0.77 -1.51,1.55 -2.26,2.32 -0.58,-0.24 -1.16,-0.48 -1.73,-0.72 0.01,-1.08 0.03,-2.16 0.05,-3.25z"/>
    </g>
   </g>
  </g>
 </g>
</svg>
