<?xml version="1.0" encoding="UTF-8"?>
<!DOCTYPE svg PUBLIC "-//W3C//DTD SVG 1.1//EN" "http://www.w3.org/Graphics/SVG/1.1/DTD/svg11.dtd">
<!-- Creator: CorelDRAW 2020 (64-Bit) -->
<svg xmlns="http://www.w3.org/2000/svg" xml:space="preserve" width="17px" height="17px" version="1.1" style="shape-rendering:geometricPrecision; text-rendering:geometricPrecision; image-rendering:optimizeQuality; fill-rule:evenodd; clip-rule:evenodd"
viewBox="0 0 15.62 15.62"
 xmlns:xlink="http://www.w3.org/1999/xlink"
 xmlns:xodm="http://www.corel.com/coreldraw/odm/2003">
 <defs>
  <style type="text/css">
   <![CDATA[
    .fil0 {fill:black;fill-rule:nonzero}
   ]]>
  </style>
 </defs>
 <g id="Layer_x0020_1">
  <metadata id="CorelCorpID_0Corel-Layer"/>
  <g id="_1572134590960">
   <g>
    <path class="fil0" d="M14.14 0.25c0.34,-0.33 0.89,-0.33 1.23,0 0.34,0.34 0.34,0.9 0,1.24l-1.23 -1.24zm-13.89 13.89l13.89 -13.89 1.23 1.24 -13.88 13.88 -1.24 -1.23zm1.24 1.23c-0.34,0.34 -0.9,0.34 -1.24,0 -0.33,-0.34 -0.33,-0.89 0,-1.23l1.24 1.23z"/>
   </g>
   <g>
    <path class="fil0" d="M15.37 14.14c0.34,0.34 0.34,0.89 0,1.23 -0.34,0.34 -0.89,0.34 -1.23,0l1.23 -1.23zm-13.88 -13.89l13.88 13.89 -1.23 1.23 -13.89 -13.88 1.24 -1.24zm-1.24 1.24c-0.33,-0.34 -0.33,-0.9 0,-1.24 0.34,-0.33 0.9,-0.33 1.24,0l-1.24 1.24z"/>
   </g>
  </g>
 </g>
</svg>
