<?xml version="1.0" encoding="UTF-8"?>
<!DOCTYPE svg PUBLIC "-//W3C//DTD SVG 1.1//EN" "http://www.w3.org/Graphics/SVG/1.1/DTD/svg11.dtd">
<!-- Creator: CorelDRAW 2020 (64-Bit) -->
<svg xmlns="http://www.w3.org/2000/svg" xml:space="preserve" width="803px" height="106px" version="1.1" style="shape-rendering:geometricPrecision; text-rendering:geometricPrecision; image-rendering:optimizeQuality; fill-rule:evenodd; clip-rule:evenodd"
viewBox="0 0 801.32 105.59"
 xmlns:xlink="http://www.w3.org/1999/xlink"
 xmlns:xodm="http://www.corel.com/coreldraw/odm/2003">
 <defs>
  <style type="text/css">
   <![CDATA[
    .fil1 {fill:white}
    .fil0 {fill:#E1E1E2;fill-rule:nonzero}
   ]]>
  </style>
 </defs>
 <g id="Layer_x0020_1">
  <metadata id="CorelCorpID_0Corel-Layer"/>
  <g>
   <path class="fil0" d="M796.8 103.51l0 2.08 -792.28 0 0 -2.08 792.28 0zm4.52 -2.44l0 0 0 0.22 -0.02 0.23 -0.03 0.23 -0.04 0.22 -0.05 0.22 -0.06 0.21 -0.07 0.21 -0.08 0.21 -0.09 0.2 -0.11 0.2 -0.1 0.18 -0.12 0.18 -0.13 0.18 -0.13 0.17 -0.14 0.17 -0.15 0.15 -0.16 0.15 -0.16 0.15 -0.18 0.13 -0.17 0.13 -0.18 0.11 -0.19 0.12 -0.2 0.1 -0.2 0.09 -0.2 0.08 -0.22 0.07 -0.21 0.06 -0.22 0.05 -0.22 0.04 -0.23 0.03 -0.22 0.02 -0.24 0.01 0 -2.08 0.12 0 0.13 -0.01 0.12 -0.02 0.12 -0.02 0.12 -0.02 0.12 -0.04 0.11 -0.04 0.11 -0.04 0.11 -0.05 0.1 -0.05 0.1 -0.06 0.1 -0.07 0.1 -0.07 0.09 -0.07 0.09 -0.08 0.09 -0.08 0.08 -0.09 0.08 -0.09 0.07 -0.09 0.07 -0.1 0.06 -0.1 0.06 -0.1 0.06 -0.1 0.05 -0.11 0.04 -0.11 0.04 -0.12 0.03 -0.12 0.03 -0.11 0.02 -0.12 0.02 -0.12 0.01 -0.12 0 -0.12 0 0 2.07 0zm-2.07 -96.55l2.07 0 0 96.55 -2.07 0 0 -96.55zm-2.45 -4.52l0 0 0.23 0.01 0.23 0.01 0.22 0.03 0.23 0.04 0.22 0.06 0.21 0.06 0.21 0.07 0.21 0.08 0.19 0.09 0.2 0.1 0.19 0.11 0.18 0.12 0.17 0.13 0.17 0.13 0.17 0.14 0.16 0.15 0.15 0.16 0.14 0.16 0.13 0.17 0.13 0.18 0.12 0.18 0.11 0.19 0.1 0.2 0.09 0.19 0.08 0.21 0.08 0.21 0.06 0.21 0.05 0.22 0.04 0.23 0.03 0.22 0.02 0.23 0 0.23 -2.07 0 0 -0.12 -0.01 -0.12 -0.02 -0.13 -0.02 -0.11 -0.03 -0.11 -0.03 -0.12 -0.04 -0.12 -0.04 -0.1 -0.05 -0.11 -0.06 -0.11 -0.06 -0.1 -0.07 -0.1 -0.06 -0.1 -0.08 -0.09 -0.08 -0.09 -0.08 -0.09 -0.09 -0.08 -0.08 -0.08 -0.1 -0.07 -0.1 -0.07 -0.1 -0.07 -0.1 -0.06 -0.11 -0.05 -0.11 -0.05 -0.1 -0.05 -0.12 -0.04 -0.11 -0.03 -0.12 -0.03 -0.11 -0.02 -0.13 -0.01 -0.12 -0.01 -0.12 -0.01 0 0 0 -2.07zm-792.28 2.07l0 -2.07 792.28 0 0 2.07 -792.28 0zm-4.52 2.45l0 0 0.01 -0.23 0.01 -0.23 0.03 -0.22 0.04 -0.23 0.06 -0.22 0.06 -0.21 0.07 -0.21 0.08 -0.21 0.09 -0.2 0.11 -0.2 0.11 -0.18 0.11 -0.19 0.13 -0.17 0.14 -0.17 0.14 -0.17 0.15 -0.16 0.16 -0.14 0.16 -0.14 0.17 -0.14 0.18 -0.13 0.18 -0.11 0.19 -0.11 0.2 -0.1 0.19 -0.09 0.21 -0.08 0.21 -0.07 0.21 -0.07 0.22 -0.05 0.22 -0.04 0.23 -0.03 0.22 -0.01 0.23 -0.01 0 2.07 -0.12 0.01 -0.12 0.01 -0.12 0.01 -0.12 0.02 -0.12 0.03 -0.11 0.03 -0.11 0.04 -0.11 0.05 -0.11 0.05 -0.11 0.05 -0.1 0.06 -0.1 0.06 -0.1 0.07 -0.09 0.07 -0.09 0.08 -0.09 0.09 -0.08 0.08 -0.08 0.09 -0.07 0.09 -0.07 0.1 -0.07 0.1 -0.06 0.11 -0.05 0.1 -0.05 0.11 -0.05 0.11 -0.03 0.11 -0.04 0.12 -0.03 0.11 -0.02 0.12 -0.01 0.12 -0.01 0.13 -0.01 0.12 0 0 -2.07 0zm2.07 96.55l-2.07 0 0 -96.55 2.07 0 0 96.55zm2.45 4.52l0 0 -0.23 -0.01 -0.23 -0.01 -0.23 -0.04 -0.22 -0.04 -0.21 -0.05 -0.22 -0.06 -0.21 -0.07 -0.21 -0.08 -0.19 -0.09 -0.2 -0.1 -0.19 -0.11 -0.18 -0.12 -0.18 -0.12 -0.17 -0.14 -0.17 -0.14 -0.15 -0.15 -0.15 -0.16 -0.14 -0.16 -0.14 -0.17 -0.13 -0.18 -0.11 -0.18 -0.11 -0.19 -0.1 -0.2 -0.09 -0.2 -0.08 -0.2 -0.08 -0.21 -0.06 -0.22 -0.05 -0.21 -0.04 -0.22 -0.03 -0.24 -0.01 -0.22 -0.01 -0.23 2.07 0 0.01 0.12 0.01 0.13 0.01 0.11 0.02 0.12 0.03 0.12 0.03 0.12 0.04 0.11 0.05 0.11 0.05 0.11 0.05 0.11 0.06 0.1 0.06 0.1 0.07 0.1 0.07 0.09 0.08 0.09 0.08 0.08 0.09 0.09 0.09 0.07 0.09 0.08 0.1 0.06 0.1 0.07 0.1 0.06 0.11 0.05 0.1 0.05 0.12 0.04 0.11 0.04 0.11 0.04 0.12 0.02 0.12 0.03 0.12 0.01 0.13 0.01 0.12 0 0 0 0 2.08z"/>
   <path id="1" class="fil1" d="M4.52 104.55l792.28 0c1.92,0 3.49,-1.58 3.49,-3.48l0 -96.55c0,-1.9 -1.6,-3.48 -3.49,-3.48l-792.28 0c-1.89,0 -3.48,1.57 -3.48,3.48l0 96.55c0,1.91 1.57,3.48 3.48,3.48z"/>
  </g>
 </g>
</svg>
