<?xml version="1.0" encoding="UTF-8"?>
<!DOCTYPE svg PUBLIC "-//W3C//DTD SVG 1.1//EN" "http://www.w3.org/Graphics/SVG/1.1/DTD/svg11.dtd">
<!-- Creator: CorelDRAW 2020 (64-Bit) -->
<svg xmlns="http://www.w3.org/2000/svg" xml:space="preserve" width="13px" height="13px" version="1.1" style="shape-rendering:geometricPrecision; text-rendering:geometricPrecision; image-rendering:optimizeQuality; fill-rule:evenodd; clip-rule:evenodd"
viewBox="0 0 11.51 11.51"
 xmlns:xlink="http://www.w3.org/1999/xlink"
 xmlns:xodm="http://www.corel.com/coreldraw/odm/2003">
 <defs>
  <style type="text/css">
   <![CDATA[
    .fil0 {fill:#35404F}
   ]]>
  </style>
 </defs>
 <g id="Layer_x0020_1">
  <metadata id="CorelCorpID_0Corel-Layer"/>
  <g id="_1964213769888">
   <polygon class="fil0" points="8.51,3.77 9.13,4.39 5.75,7.77 2.38,4.39 3,3.77 5.32,6.1 5.32,0 6.18,0 6.18,6.1 "/>
   <path class="fil0" d="M0 7.08l0.84 0 0 2.53c0,0.58 0.47,1.06 1.05,1.06l7.73 0c0.58,0 1.05,-0.48 1.05,-1.06l0 -2.53 0.84 0 0 2.89c0,0.85 -0.69,1.54 -1.53,1.54l-8.45 0c-0.84,0 -1.53,-0.69 -1.53,-1.54l0 -2.89z"/>
  </g>
 </g>
</svg>
