<?xml version="1.0" encoding="UTF-8"?>
<!DOCTYPE svg PUBLIC "-//W3C//DTD SVG 1.1//EN" "http://www.w3.org/Graphics/SVG/1.1/DTD/svg11.dtd">
<!-- Creator: CorelDRAW 2020 (64-Bit) -->
<svg xmlns="http://www.w3.org/2000/svg" xml:space="preserve" width="11px" height="12px" version="1.1" style="shape-rendering:geometricPrecision; text-rendering:geometricPrecision; image-rendering:optimizeQuality; fill-rule:evenodd; clip-rule:evenodd"
viewBox="0 0 9.63 10.48"
 xmlns:xlink="http://www.w3.org/1999/xlink"
 xmlns:xodm="http://www.corel.com/coreldraw/odm/2003">
 <defs>
  <style type="text/css">
   <![CDATA[
    .fil0 {fill:#35404F;fill-rule:nonzero}
   ]]>
  </style>
 </defs>
 <g id="Layer_x0020_1">
  <metadata id="CorelCorpID_0Corel-Layer"/>
  <g id="_1963369647632">
   <g>
    <path class="fil0" d="M8.05 3.32c0.01,-0.2 0.17,-0.36 0.36,-0.35 0.19,0 0.34,0.17 0.34,0.37l-0.7 -0.02zm-0.22 6.78l0.22 -6.78 0.7 0.02 -0.22 6.79 -0.35 0.35 -0.35 -0.38zm0.7 0.03c-0.01,0.2 -0.17,0.36 -0.36,0.35 -0.19,0 -0.34,-0.17 -0.34,-0.38l0.7 0.03zm-7.08 -0.38l6.73 0 0 0.73 -6.73 0 -0.35 -0.35 0.35 -0.38zm0 0.73c-0.19,0 -0.35,-0.16 -0.35,-0.36 0,-0.2 0.16,-0.37 0.35,-0.37l0 0.73zm0.13 -7.16l0.22 6.78 -0.7 0.03 -0.22 -6.79 0.7 -0.02zm-0.7 0.02c0,-0.2 0.15,-0.37 0.34,-0.37 0.19,-0.01 0.35,0.15 0.36,0.35l-0.7 0.02z"/>
   </g>
   <g>
    <path class="fil0" d="M3.48 3.9c0,-0.2 0.15,-0.37 0.34,-0.37 0.2,0 0.35,0.17 0.35,0.37l-0.69 0zm0 4.18l0 -4.18 0.69 0 0 4.18 -0.69 0zm0.69 0c0,0.2 -0.15,0.37 -0.35,0.37 -0.19,0 -0.34,-0.17 -0.34,-0.37l0.69 0z"/>
   </g>
   <g>
    <path class="fil0" d="M5.46 3.9c0,-0.2 0.16,-0.37 0.35,-0.37 0.19,0 0.34,0.17 0.34,0.37l-0.69 0zm0 4.18l0 -4.18 0.69 0 0 4.18 -0.69 0zm0.69 0c0,0.2 -0.15,0.37 -0.34,0.37 -0.19,0 -0.35,-0.17 -0.35,-0.37l0.69 0z"/>
   </g>
   <g>
    <path class="fil0" d="M0.35 2.51c-0.19,0 -0.35,-0.16 -0.35,-0.37 0,-0.2 0.16,-0.36 0.35,-0.36l0 0.73zm8.93 0l-8.93 0 0 -0.73 8.93 0 0 0.73zm0 -0.73c0.2,0 0.35,0.16 0.35,0.36 0,0.21 -0.15,0.37 -0.35,0.37l0 -0.73z"/>
   </g>
   <g>
    <path class="fil0" d="M3.22 2.14c0,0.21 -0.16,0.37 -0.35,0.37 -0.19,0 -0.35,-0.16 -0.35,-0.37l0.7 0zm1.6 -2.14l0 0.73 0 0 -0.09 0 -0.08 0.01 -0.09 0.01 -0.08 0.01 -0.08 0.02 -0.07 0.02 -0.08 0.02 -0.07 0.03 -0.07 0.03 -0.07 0.03 -0.07 0.04 -0.07 0.03 -0.06 0.05 -0.06 0.04 -0.06 0.04 -0.05 0.05 -0.05 0.05 -0.05 0.05 -0.05 0.06 -0.04 0.05 -0.04 0.06 -0.04 0.06 -0.03 0.06 -0.03 0.06 -0.03 0.06 -0.02 0.07 -0.02 0.06 -0.02 0.07 -0.01 0.07 -0.01 0.06 -0.01 0.07 0 0.07 -0.7 0 0.01 -0.11 0 -0.11 0.02 -0.11 0.02 -0.11 0.03 -0.1 0.03 -0.11 0.04 -0.1 0.04 -0.1 0.05 -0.1 0.05 -0.09 0.06 -0.09 0.06 -0.08 0.06 -0.09 0.07 -0.08 0.07 -0.08 0.08 -0.07 0.08 -0.07 0.08 -0.06 0.09 -0.07 0.09 -0.05 0.09 -0.06 0.1 -0.05 0.1 -0.05 0.1 -0.04 0.1 -0.04 0.11 -0.03 0.1 -0.03 0.11 -0.02 0.11 -0.02 0.12 -0.01 0.11 -0.01 0.12 0 0 0zm2.29 2.14l-0.7 0 0 -0.07 -0.01 -0.07 0 -0.06 -0.02 -0.07 -0.01 -0.07 -0.02 -0.06 -0.03 -0.07 -0.02 -0.06 -0.04 -0.06 -0.03 -0.06 -0.04 -0.06 -0.04 -0.06 -0.04 -0.05 -0.05 -0.06 -0.04 -0.05 -0.06 -0.05 -0.05 -0.05 -0.06 -0.04 -0.06 -0.04 -0.06 -0.05 -0.07 -0.03 -0.06 -0.04 -0.08 -0.03 -0.07 -0.03 -0.07 -0.03 -0.08 -0.02 -0.07 -0.02 -0.08 -0.02 -0.08 -0.01 -0.09 -0.01 -0.08 -0.01 -0.08 0 0 -0.73 0.11 0 0.12 0.01 0.11 0.01 0.11 0.02 0.11 0.02 0.11 0.03 0.1 0.03 0.1 0.04 0.1 0.04 0.1 0.05 0.1 0.05 0.09 0.06 0.09 0.05 0.09 0.07 0.08 0.06 0.08 0.07 0.08 0.07 0.07 0.08 0.07 0.08 0.06 0.09 0.07 0.08 0.05 0.09 0.05 0.09 0.05 0.1 0.04 0.1 0.04 0.1 0.03 0.11 0.03 0.1 0.02 0.11 0.02 0.11 0.01 0.11 0 0.11zm0 0c0,0.21 -0.16,0.37 -0.35,0.37 -0.19,0 -0.35,-0.16 -0.35,-0.37l0.7 0z"/>
   </g>
  </g>
 </g>
</svg>
