<?xml version="1.0" encoding="UTF-8"?>
<!DOCTYPE svg PUBLIC "-//W3C//DTD SVG 1.1//EN" "http://www.w3.org/Graphics/SVG/1.1/DTD/svg11.dtd">
<!-- Creator: CorelDRAW 2020 (64-Bit) -->
<svg xmlns="http://www.w3.org/2000/svg" xml:space="preserve" width="105px" height="42px" version="1.1" style="shape-rendering:geometricPrecision; text-rendering:geometricPrecision; image-rendering:optimizeQuality; fill-rule:evenodd; clip-rule:evenodd"
viewBox="0 0 103.42 41.41"
 xmlns:xlink="http://www.w3.org/1999/xlink"
 xmlns:xodm="http://www.corel.com/coreldraw/odm/2003">
 <defs>
  <style type="text/css">
   <![CDATA[
    .fil1 {fill:white}
    .fil0 {fill:#E1E1E2;fill-rule:nonzero}
   ]]>
  </style>
 </defs>
 <g id="Layer_x0020_1">
  <metadata id="CorelCorpID_0Corel-Layer"/>
  <g>
   <path class="fil0" d="M99.15 39.46l0 1.95 -94.88 0 0 -1.95 94.88 0zm4.27 -2.31l0 0 -0.01 0.21 -0.01 0.22 -0.03 0.21 -0.04 0.21 -0.05 0.21 -0.06 0.2 -0.06 0.2 -0.08 0.19 -0.09 0.19 -0.09 0.19 -0.1 0.17 -0.11 0.17 -0.12 0.17 -0.13 0.16 -0.13 0.16 -0.14 0.15 -0.15 0.14 -0.15 0.13 -0.17 0.13 -0.16 0.12 -0.17 0.11 -0.18 0.1 -0.19 0.1 -0.19 0.09 -0.2 0.07 -0.19 0.07 -0.2 0.06 -0.21 0.05 -0.21 0.03 -0.21 0.03 -0.22 0.02 -0.22 0 0 -1.95 0.12 -0.01 0.11 0 0.12 -0.02 0.12 -0.02 0.1 -0.03 0.11 -0.03 0.11 -0.04 0.1 -0.04 0.1 -0.04 0.1 -0.05 0.1 -0.06 0.1 -0.06 0.09 -0.07 0.08 -0.06 0.09 -0.08 0.08 -0.08 0.08 -0.08 0.07 -0.08 0.07 -0.09 0.06 -0.09 0.07 -0.1 0.05 -0.09 0.05 -0.1 0.05 -0.1 0.04 -0.11 0.04 -0.1 0.03 -0.12 0.02 -0.11 0.02 -0.11 0.02 -0.11 0.01 -0.12 0 -0.11 0 0 1.96 0zm-1.96 -32.88l1.96 0 0 32.88 -1.96 0 0 -32.88zm-2.31 -4.27l0 0 0.21 0.01 0.22 0.01 0.22 0.03 0.2 0.04 0.21 0.05 0.2 0.06 0.2 0.06 0.19 0.08 0.19 0.09 0.19 0.09 0.18 0.1 0.17 0.12 0.16 0.11 0.16 0.13 0.16 0.14 0.15 0.14 0.14 0.14 0.13 0.16 0.13 0.16 0.12 0.17 0.11 0.17 0.11 0.18 0.09 0.18 0.09 0.19 0.07 0.19 0.07 0.2 0.06 0.21 0.05 0.2 0.04 0.21 0.02 0.21 0.02 0.22 0.01 0.22 -1.96 0 0 -0.12 -0.01 -0.11 -0.02 -0.12 -0.02 -0.11 -0.02 -0.11 -0.03 -0.11 -0.04 -0.1 -0.04 -0.11 -0.05 -0.1 -0.05 -0.1 -0.06 -0.1 -0.06 -0.09 -0.06 -0.09 -0.07 -0.09 -0.08 -0.09 -0.08 -0.08 -0.08 -0.08 -0.08 -0.07 -0.09 -0.07 -0.09 -0.07 -0.1 -0.06 -0.1 -0.05 -0.1 -0.05 -0.1 -0.05 -0.1 -0.04 -0.11 -0.04 -0.11 -0.03 -0.1 -0.02 -0.12 -0.03 -0.11 -0.01 -0.11 -0.01 -0.12 0 0 0 0 -1.96zm-94.88 1.96l0 -1.96 94.88 0 0 1.96 -94.88 0zm-4.27 2.31l0 0 0.01 -0.22 0.01 -0.22 0.03 -0.21 0.04 -0.21 0.05 -0.21 0.06 -0.2 0.07 -0.2 0.07 -0.19 0.09 -0.19 0.09 -0.19 0.11 -0.18 0.11 -0.17 0.12 -0.16 0.12 -0.16 0.14 -0.16 0.14 -0.15 0.15 -0.14 0.15 -0.13 0.17 -0.13 0.16 -0.12 0.18 -0.11 0.18 -0.1 0.18 -0.1 0.19 -0.08 0.19 -0.08 0.2 -0.07 0.2 -0.05 0.2 -0.05 0.21 -0.04 0.22 -0.03 0.21 -0.01 0.22 -0.01 0 1.96 -0.12 0 -0.11 0.01 -0.11 0.01 -0.12 0.02 -0.11 0.03 -0.11 0.03 -0.1 0.04 -0.11 0.04 -0.1 0.05 -0.1 0.05 -0.1 0.05 -0.09 0.06 -0.09 0.07 -0.09 0.07 -0.08 0.07 -0.09 0.08 -0.07 0.08 -0.08 0.08 -0.07 0.09 -0.06 0.1 -0.07 0.09 -0.05 0.09 -0.05 0.1 -0.05 0.11 -0.04 0.11 -0.04 0.1 -0.03 0.11 -0.03 0.11 -0.01 0.11 -0.02 0.11 -0.01 0.12 0 0.12 0 0 -1.96 0zm1.96 32.88l-1.96 0 0 -32.88 1.96 0 0 32.88zm2.31 4.26l0 0 -0.22 0 -0.21 -0.02 -0.22 -0.03 -0.21 -0.03 -0.2 -0.05 -0.21 -0.06 -0.2 -0.07 -0.19 -0.07 -0.19 -0.09 -0.18 -0.09 -0.18 -0.11 -0.17 -0.11 -0.17 -0.12 -0.16 -0.12 -0.16 -0.14 -0.15 -0.14 -0.14 -0.15 -0.13 -0.15 -0.13 -0.16 -0.12 -0.17 -0.11 -0.17 -0.1 -0.18 -0.1 -0.19 -0.08 -0.18 -0.08 -0.2 -0.07 -0.2 -0.05 -0.2 -0.05 -0.2 -0.04 -0.21 -0.03 -0.22 -0.01 -0.22 -0.01 -0.21 1.96 0 0 0.12 0.01 0.11 0.01 0.11 0.02 0.12 0.03 0.11 0.03 0.11 0.04 0.11 0.04 0.1 0.05 0.1 0.05 0.1 0.05 0.1 0.06 0.09 0.07 0.09 0.07 0.09 0.07 0.09 0.08 0.08 0.08 0.07 0.08 0.08 0.09 0.07 0.09 0.06 0.1 0.06 0.09 0.06 0.1 0.05 0.1 0.04 0.11 0.05 0.11 0.03 0.1 0.03 0.12 0.03 0.11 0.02 0.11 0.01 0.12 0.01 0.12 0.01 0 0 0 1.95z"/>
   <path id="1" class="fil1" d="M4.27 40.44l94.88 0c1.81,0 3.29,-1.5 3.29,-3.29l0 -32.88c0,-1.8 -1.5,-3.29 -3.29,-3.29l-94.88 0c-1.79,0 -3.29,1.48 -3.29,3.29l0 32.88c0,1.8 1.48,3.29 3.29,3.29z"/>
  </g>
 </g>
</svg>
