<?xml version="1.0" encoding="UTF-8"?>
<!DOCTYPE svg PUBLIC "-//W3C//DTD SVG 1.1//EN" "http://www.w3.org/Graphics/SVG/1.1/DTD/svg11.dtd">
<!-- Creator: CorelDRAW 2020 (64-Bit) -->
<svg xmlns="http://www.w3.org/2000/svg" xml:space="preserve" width="135px" height="44px" version="1.1" style="shape-rendering:geometricPrecision; text-rendering:geometricPrecision; image-rendering:optimizeQuality; fill-rule:evenodd; clip-rule:evenodd"
viewBox="0 0 133.37 43.43"
 xmlns:xlink="http://www.w3.org/1999/xlink"
 xmlns:xodm="http://www.corel.com/coreldraw/odm/2003">
 <defs>
  <style type="text/css">
   <![CDATA[
    .str0 {stroke:#0079C2;stroke-width:0.87;stroke-miterlimit:2.61313}
    .str1 {stroke:#1088E7;stroke-width:0.87;stroke-miterlimit:2.61313}
    .fil0 {fill:none;fill-rule:nonzero}
    .fil1 {fill:white;fill-rule:nonzero}
   ]]>
  </style>
 </defs>
 <g id="Layer_x0020_1">
  <metadata id="CorelCorpID_0Corel-Layer"/>
  <g id="_2000948995024">
   <g>
    <path class="fil0 str0" d="M3.82 0.44l125.73 0c1.87,0 3.39,1.54 3.39,3.41l0 35.72c0,1.88 -1.54,3.42 -3.39,3.42l-125.73 0c-1.85,0 -3.38,-1.53 -3.38,-3.42l0 -35.72c0,-1.88 1.52,-3.41 3.38,-3.41z"/>
    <path id="1" class="fil1" d="M3.82 0.44l125.73 0c1.87,0 3.39,1.54 3.39,3.41l0 35.72c0,1.88 -1.54,3.42 -3.39,3.42l-125.73 0c-1.85,0 -3.38,-1.53 -3.38,-3.42l0 -35.72c0,-1.88 1.52,-3.41 3.38,-3.41z"/>
   </g>
   <g>
    <path class="fil0 str1" d="M3.82 0.44l125.73 0c1.87,0 3.39,1.54 3.39,3.41l0 35.72c0,1.88 -1.54,3.42 -3.39,3.42l-125.73 0c-1.85,0 -3.38,-1.53 -3.38,-3.42l0 -35.72c0,-1.88 1.52,-3.41 3.38,-3.41z"/>
   </g>
  </g>
 </g>
</svg>
