<?xml version="1.0" encoding="UTF-8"?>
<!DOCTYPE svg PUBLIC "-//W3C//DTD SVG 1.1//EN" "http://www.w3.org/Graphics/SVG/1.1/DTD/svg11.dtd">
<!-- Creator: CorelDRAW 2020 (64-Bit) -->
<svg xmlns="http://www.w3.org/2000/svg" xml:space="preserve" width="39px" height="39px" version="1.1" style="shape-rendering:geometricPrecision; text-rendering:geometricPrecision; image-rendering:optimizeQuality; fill-rule:evenodd; clip-rule:evenodd"
viewBox="0 0 37.39 37.39"
 xmlns:xlink="http://www.w3.org/1999/xlink"
 xmlns:xodm="http://www.corel.com/coreldraw/odm/2003">
 <defs>
  <style type="text/css">
   <![CDATA[
    .str0 {stroke:#1088E7;stroke-width:1.2;stroke-linecap:round;stroke-linejoin:round;stroke-miterlimit:2.61313}
    .fil2 {fill:none}
    .fil0 {fill:#E5F3FF}
    .fil1 {fill:#1088E7;fill-rule:nonzero}
   ]]>
  </style>
 </defs>
 <g id="Layer_x0020_1">
  <metadata id="CorelCorpID_0Corel-Layer"/>
  <g id="_1999718315536">
   <path class="fil0" d="M18.69 0c10.33,0 18.7,8.37 18.7,18.69 0,10.33 -8.37,18.7 -18.7,18.7 -10.32,0 -18.69,-8.37 -18.69,-18.7 0,-10.32 8.37,-18.69 18.69,-18.69z"/>
   <g>
    <g>
     <path class="fil1" d="M9.69 18.2c-0.25,0.22 -0.62,0.19 -0.84,-0.06 -0.22,-0.25 -0.19,-0.63 0.06,-0.84l0.78 0.9zm9.4 -8.16l-9.4 8.16 -0.78 -0.9 9.39 -8.17 0.79 0 0 0.91zm-0.79 -0.91c0.25,-0.21 0.63,-0.19 0.84,0.06 0.22,0.25 0.19,0.63 -0.05,0.85l-0.79 -0.91zm9.39 9.07l-9.39 -8.16 0.79 -0.91 9.39 8.17 -0.79 0.9zm0.79 -0.9c0.25,0.21 0.27,0.59 0.06,0.84 -0.22,0.25 -0.6,0.28 -0.85,0.06l0.79 -0.9z"/>
    </g>
    <g>
     <path class="fil1" d="M25.55 16.06c0,-0.33 0.27,-0.6 0.6,-0.6 0.33,0 0.6,0.27 0.6,0.6l-1.2 0zm0 11.74l0 -11.74 1.2 0 0 11.74 -0.6 0.6 -0.6 -0.6zm1.2 0c0,0.33 -0.27,0.6 -0.6,0.6 -0.33,0 -0.6,-0.27 -0.6,-0.6l1.2 0zm-15.52 -0.6l14.92 0 0 1.2 -14.92 0 -0.6 -0.6 0.6 -0.6zm0 1.2c-0.33,0 -0.6,-0.27 -0.6,-0.6 0,-0.33 0.27,-0.6 0.6,-0.6l0 1.2zm0.6 -12.34l0 11.74 -1.2 0 0 -11.74 1.2 0zm-1.2 0c0,-0.33 0.27,-0.6 0.6,-0.6 0.33,0 0.6,0.27 0.6,0.6l-1.2 0z"/>
    </g>
    <g>
     <polygon class="fil2 str0" points="16.32,20.48 21.07,20.48 21.07,27.8 16.32,27.8 "/>
    </g>
   </g>
  </g>
 </g>
</svg>
