<?xml version="1.0" encoding="UTF-8"?>
<!DOCTYPE svg PUBLIC "-//W3C//DTD SVG 1.1//EN" "http://www.w3.org/Graphics/SVG/1.1/DTD/svg11.dtd">
<!-- Creator: CorelDRAW 2020 (64-Bit) -->
<svg xmlns="http://www.w3.org/2000/svg" xml:space="preserve" width="147px" height="43px" version="1.1" style="shape-rendering:geometricPrecision; text-rendering:geometricPrecision; image-rendering:optimizeQuality; fill-rule:evenodd; clip-rule:evenodd"
viewBox="0 0 145.37 42.7"
 xmlns:xlink="http://www.w3.org/1999/xlink"
 xmlns:xodm="http://www.corel.com/coreldraw/odm/2003">
 <defs>
  <style type="text/css">
   <![CDATA[
    .fil2 {fill:#0056C6}
    .fil1 {fill:#1088E7}
    .fil3 {fill:white}
    .fil0 {fill:#DADBDC;fill-rule:nonzero}
   ]]>
  </style>
    <mask id="id0">
  <linearGradient id="id1" gradientUnits="userSpaceOnUse" x1="78.43" y1="62.25" x2="78.43" y2="23.28">
   <stop offset="0" style="stop-opacity:1; stop-color:white"/>
   <stop offset="1" style="stop-opacity:0; stop-color:white"/>
  </linearGradient>
     <rect style="fill:url(#id1)" x="1.01" y="21.35" width="143.35" height="20.34"/>
    </mask>
    <mask id="id2">
  <linearGradient id="id3" gradientUnits="userSpaceOnUse" x1="66.94" y1="-27.38" x2="66.95" y2="26.03">
   <stop offset="0" style="stop-opacity:1; stop-color:white"/>
   <stop offset="1" style="stop-opacity:0; stop-color:white"/>
  </linearGradient>
     <rect style="fill:url(#id3)" x="1.01" y="1.01" width="143.35" height="28.09"/>
    </mask>
 </defs>
 <g id="Layer_x0020_1">
  <metadata id="CorelCorpID_0Corel-Layer"/>
  <g id="_1572493357776">
   <g>
    <path class="fil0" d="M140.97 40.68l0 2.02 -136.57 0 0 -2.02 136.57 0zm4.4 -2.38l0 0 -0.01 0.22 -0.01 0.22 -0.03 0.23 -0.04 0.21 -0.05 0.22 -0.06 0.2 -0.07 0.21 -0.08 0.19 -0.09 0.2 -0.1 0.19 -0.1 0.19 -0.12 0.17 -0.12 0.18 -0.13 0.16 -0.14 0.16 -0.14 0.16 -0.16 0.14 -0.15 0.14 -0.17 0.13 -0.17 0.12 -0.18 0.12 -0.19 0.11 -0.19 0.09 -0.19 0.09 -0.2 0.08 -0.2 0.07 -0.22 0.06 -0.21 0.05 -0.21 0.04 -0.23 0.03 -0.22 0.01 -0.22 0.01 0 -2.02 0.12 0 0.12 -0.01 0.12 -0.01 0.11 -0.03 0.12 -0.02 0.11 -0.04 0.11 -0.03 0.11 -0.05 0.11 -0.05 0.1 -0.05 0.1 -0.05 0.09 -0.07 0.1 -0.07 0.09 -0.06 0.09 -0.08 0.08 -0.08 0.08 -0.08 0.07 -0.09 0.07 -0.09 0.07 -0.1 0.07 -0.1 0.05 -0.1 0.06 -0.1 0.04 -0.1 0.05 -0.11 0.03 -0.11 0.04 -0.11 0.02 -0.12 0.02 -0.11 0.02 -0.12 0.01 -0.12 0 -0.12 0 0 2.02 0zm-2.02 -33.9l2.02 0 0 33.9 -2.02 0 0 -33.9zm-2.38 -4.4l0 0 0.22 0.01 0.22 0.01 0.23 0.03 0.21 0.04 0.21 0.05 0.21 0.06 0.21 0.07 0.2 0.08 0.19 0.09 0.19 0.09 0.18 0.11 0.18 0.12 0.17 0.12 0.17 0.13 0.16 0.14 0.15 0.14 0.15 0.16 0.13 0.15 0.14 0.17 0.12 0.17 0.11 0.18 0.11 0.19 0.1 0.19 0.09 0.19 0.08 0.2 0.07 0.21 0.06 0.2 0.05 0.22 0.04 0.21 0.02 0.22 0.02 0.22 0.01 0.23 -2.02 0 0 -0.12 -0.01 -0.12 -0.02 -0.12 -0.02 -0.11 -0.02 -0.12 -0.04 -0.11 -0.03 -0.11 -0.05 -0.11 -0.05 -0.1 -0.05 -0.1 -0.06 -0.1 -0.06 -0.1 -0.07 -0.1 -0.07 -0.09 -0.08 -0.08 -0.07 -0.09 -0.09 -0.08 -0.09 -0.07 -0.09 -0.07 -0.09 -0.07 -0.1 -0.07 -0.1 -0.05 -0.1 -0.06 -0.11 -0.05 -0.11 -0.04 -0.1 -0.04 -0.11 -0.03 -0.12 -0.02 -0.12 -0.03 -0.11 -0.01 -0.12 -0.01 -0.12 0 0 0 0 -2.02zm-136.57 2.02l0 -2.02 136.57 0 0 2.02 -136.57 0zm-4.4 2.38l0 0 0.01 -0.23 0.01 -0.22 0.03 -0.22 0.04 -0.22 0.05 -0.21 0.06 -0.21 0.07 -0.2 0.08 -0.2 0.09 -0.2 0.1 -0.19 0.11 -0.18 0.11 -0.18 0.13 -0.17 0.12 -0.16 0.14 -0.17 0.15 -0.15 0.15 -0.14 0.16 -0.14 0.17 -0.13 0.17 -0.12 0.18 -0.12 0.18 -0.1 0.19 -0.1 0.2 -0.09 0.2 -0.08 0.2 -0.07 0.21 -0.06 0.21 -0.05 0.21 -0.04 0.23 -0.03 0.22 -0.01 0.22 -0.01 0 2.02 -0.12 0 -0.12 0.01 -0.11 0.01 -0.12 0.03 -0.11 0.02 -0.12 0.03 -0.11 0.04 -0.1 0.05 -0.11 0.04 -0.1 0.06 -0.1 0.05 -0.1 0.07 -0.09 0.07 -0.1 0.07 -0.08 0.07 -0.08 0.08 -0.09 0.09 -0.07 0.08 -0.07 0.09 -0.07 0.1 -0.07 0.09 -0.05 0.1 -0.06 0.11 -0.04 0.1 -0.05 0.11 -0.03 0.11 -0.04 0.11 -0.02 0.12 -0.02 0.11 -0.02 0.12 -0.01 0.12 0 0.12 0 0 -2.02 0zm2.02 33.9l-2.02 0 0 -33.9 2.02 0 0 33.9zm2.38 4.4l0 0 -0.22 -0.01 -0.23 -0.01 -0.22 -0.03 -0.22 -0.04 -0.2 -0.05 -0.22 -0.06 -0.2 -0.07 -0.2 -0.08 -0.2 -0.09 -0.18 -0.09 -0.19 -0.11 -0.18 -0.12 -0.17 -0.12 -0.16 -0.13 -0.17 -0.14 -0.15 -0.15 -0.14 -0.15 -0.14 -0.16 -0.13 -0.16 -0.12 -0.17 -0.12 -0.18 -0.11 -0.19 -0.09 -0.19 -0.09 -0.19 -0.08 -0.2 -0.07 -0.21 -0.06 -0.21 -0.05 -0.2 -0.04 -0.22 -0.03 -0.23 -0.01 -0.22 -0.01 -0.22 2.02 0 0 0.12 0.01 0.12 0.01 0.12 0.03 0.11 0.02 0.12 0.04 0.11 0.03 0.11 0.05 0.11 0.04 0.11 0.06 0.1 0.05 0.1 0.07 0.09 0.06 0.1 0.07 0.09 0.08 0.09 0.08 0.08 0.08 0.08 0.09 0.07 0.09 0.07 0.1 0.07 0.09 0.07 0.1 0.05 0.11 0.06 0.1 0.04 0.11 0.05 0.11 0.03 0.11 0.04 0.12 0.02 0.11 0.03 0.12 0.01 0.12 0.01 0.12 0 0 0 0 2.02z"/>
    <path id="1" class="fil1" d="M4.4 41.69l136.57 0c1.86,0 3.39,-1.53 3.39,-3.39l0 -33.9c0,-1.86 -1.54,-3.39 -3.39,-3.39l-136.57 0c-1.85,0 -3.39,1.53 -3.39,3.39l0 33.9c0,1.86 1.53,3.39 3.39,3.39z"/>
   </g>
   <path class="fil2" style="mask:url(#id0)" d="M1.01 21.35l0 16.95c0,1.86 1.54,3.39 3.39,3.39l136.57 0c1.85,0 3.39,-1.53 3.39,-3.39l0 -16.95 -143.35 0z"/>
   <path class="fil3" style="mask:url(#id2)" d="M144.36 29.1l0 -24.7c0,-1.86 -1.54,-3.39 -3.39,-3.39l-136.57 0c-1.85,0 -3.39,1.53 -3.39,3.39l0 24.7 143.35 0z"/>
  </g>
 </g>
</svg>
