<?xml version="1.0" encoding="UTF-8"?>
<!DOCTYPE svg PUBLIC "-//W3C//DTD SVG 1.1//EN" "http://www.w3.org/Graphics/SVG/1.1/DTD/svg11.dtd">
<!-- Creator: CorelDRAW 2020 (64-Bit) -->
<svg xmlns="http://www.w3.org/2000/svg" xml:space="preserve" width="13px" height="13px" version="1.1" style="shape-rendering:geometricPrecision; text-rendering:geometricPrecision; image-rendering:optimizeQuality; fill-rule:evenodd; clip-rule:evenodd"
viewBox="0 0 11.68 11.65"
 xmlns:xlink="http://www.w3.org/1999/xlink"
 xmlns:xodm="http://www.corel.com/coreldraw/odm/2003">
 <defs>
  <style type="text/css">
   <![CDATA[
    .fil1 {fill:#1088E7}
    .fil0 {fill:#1088E7;fill-rule:nonzero}
   ]]>
  </style>
 </defs>
 <g id="Layer_x0020_1">
  <metadata id="CorelCorpID_0Corel-Layer"/>
  <g>
   <path class="fil0" d="M9.6 1.41l-7.53 0 0 -1.41 7.53 0 0 0 0 1.41zm2.08 0.65l-1.45 0 0 0 0 -0.03 0 -0.04 0 -0.03 -0.01 -0.03 -0.01 -0.03 0 -0.03 -0.02 -0.03 -0.01 -0.04 -0.01 -0.03 -0.01 -0.02 -0.02 -0.03 -0.02 -0.03 -0.02 -0.02 -0.02 -0.03 -0.01 -0.02 -0.03 -0.02 -0.02 -0.03 -0.02 -0.01 -0.03 -0.02 -0.02 -0.02 -0.03 -0.02 -0.03 -0.01 -0.02 -0.01 -0.03 -0.02 -0.03 -0.01 -0.03 -0.01 -0.03 -0.01 -0.02 0 -0.03 -0.01 -0.04 0 -0.03 -0.01 -0.03 0 0 -1.41 0.11 0 0.1 0.01 0.11 0.01 0.1 0.02 0.1 0.03 0.1 0.03 0.1 0.03 0.09 0.03 0.09 0.05 0.1 0.04 0.08 0.05 0.08 0.06 0.09 0.06 0.07 0.06 0.08 0.06 0.07 0.07 0.07 0.07 0.07 0.08 0.06 0.07 0.05 0.09 0.06 0.08 0.05 0.08 0.04 0.1 0.04 0.09 0.04 0.09 0.03 0.09 0.03 0.1 0.02 0.1 0.02 0.1 0.01 0.1 0.01 0.1 0.01 0.11 0 0zm-1.45 7.53l0 -7.53 1.45 0 0 7.53 0 0 -1.45 0zm-0.63 2.06l0 -1.42 0 0 0.03 0 0.03 0 0.04 0 0.03 -0.01 0.02 0 0.03 -0.01 0.03 -0.01 0.03 -0.01 0.03 -0.02 0.02 -0.01 0.03 -0.02 0.03 -0.01 0.02 -0.02 0.03 -0.02 0.02 -0.02 0.02 -0.02 0.03 -0.03 0.01 -0.02 0.02 -0.02 0.02 -0.02 0.02 -0.03 0.02 -0.03 0.01 -0.02 0.01 -0.04 0.01 -0.03 0.02 -0.03 0 -0.03 0.01 -0.03 0.01 -0.03 0 -0.04 0 -0.03 0 -0.03 1.45 0 -0.01 0.1 -0.01 0.11 -0.01 0.1 -0.02 0.1 -0.02 0.1 -0.03 0.1 -0.03 0.09 -0.04 0.09 -0.04 0.09 -0.04 0.1 -0.05 0.08 -0.06 0.08 -0.05 0.09 -0.06 0.07 -0.07 0.08 -0.07 0.07 -0.07 0.06 -0.08 0.07 -0.07 0.06 -0.09 0.06 -0.08 0.05 -0.08 0.05 -0.1 0.05 -0.09 0.04 -0.09 0.04 -0.1 0.03 -0.1 0.03 -0.1 0.03 -0.1 0.01 -0.11 0.02 -0.1 0 -0.11 0.01 0 0zm-7.53 -1.42l7.53 0 0 1.42 -7.53 0 0 0 0 -1.42zm-2.07 -0.64l1.44 0 0 0 0 0.03 0 0.03 0.01 0.04 0.01 0.03 0 0.03 0.01 0.03 0.01 0.03 0.01 0.03 0.02 0.04 0.01 0.02 0.02 0.03 0.01 0.03 0.02 0.02 0.02 0.02 0.02 0.02 0.02 0.03 0.03 0.02 0.02 0.02 0.02 0.02 0.03 0.02 0.02 0.01 0.03 0.02 0.02 0.01 0.03 0.02 0.03 0.01 0.03 0.01 0.03 0.01 0.03 0 0.03 0.01 0.03 0 0.03 0 0.03 0 0 1.42 -0.11 -0.01 -0.1 0 -0.1 -0.02 -0.11 -0.01 -0.1 -0.03 -0.1 -0.03 -0.09 -0.03 -0.09 -0.04 -0.1 -0.04 -0.09 -0.05 -0.09 -0.05 -0.08 -0.05 -0.08 -0.06 -0.08 -0.06 -0.08 -0.07 -0.07 -0.06 -0.06 -0.07 -0.07 -0.08 -0.06 -0.07 -0.06 -0.09 -0.05 -0.08 -0.05 -0.08 -0.05 -0.1 -0.04 -0.09 -0.03 -0.09 -0.04 -0.09 -0.02 -0.1 -0.03 -0.1 -0.02 -0.1 -0.01 -0.1 -0.01 -0.11 0 -0.1 0 0zm1.44 -7.53l0 7.53 -1.44 0 0 -7.53 0 0 1.44 0zm0.63 -2.06l0 1.41 0 0 -0.03 0 -0.03 0.01 -0.03 0 -0.03 0.01 -0.03 0 -0.03 0.01 -0.03 0.01 -0.03 0.01 -0.03 0.02 -0.02 0.01 -0.03 0.01 -0.02 0.02 -0.03 0.02 -0.02 0.02 -0.02 0.01 -0.03 0.03 -0.02 0.02 -0.02 0.02 -0.02 0.03 -0.02 0.02 -0.01 0.03 -0.02 0.03 -0.01 0.02 -0.02 0.03 -0.01 0.04 -0.01 0.03 -0.01 0.03 0 0.03 -0.01 0.03 -0.01 0.03 0 0.04 0 0.03 -1.44 0 0 -0.11 0.01 -0.1 0.01 -0.1 0.02 -0.1 0.03 -0.1 0.02 -0.1 0.04 -0.09 0.03 -0.09 0.04 -0.09 0.05 -0.1 0.05 -0.08 0.05 -0.08 0.06 -0.09 0.06 -0.07 0.07 -0.08 0.06 -0.07 0.07 -0.07 0.08 -0.06 0.08 -0.06 0.08 -0.06 0.08 -0.06 0.09 -0.05 0.09 -0.04 0.1 -0.05 0.09 -0.03 0.09 -0.03 0.1 -0.03 0.1 -0.03 0.11 -0.02 0.1 -0.01 0.1 -0.01 0.11 0 0 0z"/>
   <path id="1" class="fil1" d="M2.07 0.71l7.53 0c0.75,0 1.35,0.61 1.35,1.35l0 7.53c0,0.74 -0.6,1.35 -1.35,1.35l-7.53 0c-0.74,0 -1.35,-0.61 -1.35,-1.35l0 -7.53c0,-0.74 0.61,-1.35 1.35,-1.35z"/>
  </g>
 </g>
</svg>
