<?xml version="1.0" encoding="UTF-8"?>
<!DOCTYPE svg PUBLIC "-//W3C//DTD SVG 1.1//EN" "http://www.w3.org/Graphics/SVG/1.1/DTD/svg11.dtd">
<!-- Creator: CorelDRAW 2020 (64-Bit) -->
<svg xmlns="http://www.w3.org/2000/svg" xml:space="preserve" width="140px" height="43px" version="1.1" style="shape-rendering:geometricPrecision; text-rendering:geometricPrecision; image-rendering:optimizeQuality; fill-rule:evenodd; clip-rule:evenodd"
viewBox="0 0 138.37 42.63"
 xmlns:xlink="http://www.w3.org/1999/xlink"
 xmlns:xodm="http://www.corel.com/coreldraw/odm/2003">
 <defs>
  <style type="text/css">
   <![CDATA[
    .fil1 {fill:#CCE8FF}
    .fil0 {fill:#E1E1E2;fill-rule:nonzero}
   ]]>
  </style>
 </defs>
 <g id="Layer_x0020_1">
  <metadata id="CorelCorpID_0Corel-Layer"/>
  <g>
   <path class="fil0" d="M133.98 40.62l0 2.01 -129.59 0 0 -2.01 129.59 0zm4.39 -2.38l0 0 0 0.22 -0.02 0.22 -0.03 0.22 -0.04 0.22 -0.05 0.21 -0.06 0.21 -0.07 0.2 -0.07 0.2 -0.09 0.2 -0.1 0.19 -0.11 0.18 -0.11 0.18 -0.12 0.17 -0.13 0.16 -0.14 0.16 -0.15 0.16 -0.15 0.14 -0.16 0.14 -0.16 0.13 -0.18 0.13 -0.17 0.11 -0.19 0.11 -0.19 0.09 -0.19 0.09 -0.2 0.08 -0.2 0.07 -0.22 0.06 -0.21 0.05 -0.21 0.04 -0.22 0.03 -0.23 0.02 -0.22 0 0 -2.01 0.12 -0.01 0.12 0 0.12 -0.02 0.12 -0.02 0.11 -0.03 0.11 -0.03 0.11 -0.04 0.11 -0.04 0.1 -0.05 0.1 -0.05 0.11 -0.06 0.09 -0.06 0.1 -0.07 0.08 -0.07 0.09 -0.08 0.09 -0.08 0.08 -0.08 0.07 -0.08 0.07 -0.1 0.07 -0.09 0.06 -0.1 0.06 -0.1 0.05 -0.1 0.05 -0.1 0.04 -0.11 0.04 -0.11 0.03 -0.12 0.03 -0.11 0.02 -0.11 0.01 -0.12 0.01 -0.12 0.01 -0.12 0 0 2.01 0zm-2.01 -33.85l2.01 0 0 33.85 -2.01 0 0 -33.85zm-2.38 -4.39l0 0 0.22 0.01 0.22 0.01 0.22 0.03 0.22 0.04 0.21 0.05 0.21 0.06 0.2 0.07 0.2 0.08 0.2 0.09 0.19 0.1 0.17 0.1 0.19 0.12 0.17 0.12 0.16 0.13 0.16 0.14 0.15 0.14 0.15 0.15 0.14 0.16 0.13 0.17 0.12 0.17 0.12 0.18 0.1 0.18 0.1 0.19 0.09 0.2 0.08 0.2 0.07 0.2 0.06 0.21 0.05 0.21 0.04 0.22 0.03 0.22 0.02 0.22 0 0.22 -2.01 0 -0.01 -0.11 -0.01 -0.12 -0.01 -0.12 -0.02 -0.12 -0.03 -0.11 -0.03 -0.11 -0.04 -0.11 -0.04 -0.11 -0.05 -0.1 -0.05 -0.11 -0.06 -0.1 -0.06 -0.09 -0.07 -0.1 -0.07 -0.09 -0.08 -0.09 -0.08 -0.08 -0.08 -0.08 -0.09 -0.08 -0.09 -0.07 -0.1 -0.07 -0.09 -0.06 -0.11 -0.06 -0.1 -0.05 -0.1 -0.05 -0.11 -0.04 -0.11 -0.04 -0.11 -0.03 -0.11 -0.03 -0.12 -0.02 -0.12 -0.01 -0.11 -0.01 -0.12 -0.01 0 0 0 -2.01zm-129.59 2.01l0 -2.01 129.59 0 0 2.01 -129.59 0zm-4.39 2.38l0 0 0.01 -0.22 0.01 -0.22 0.03 -0.22 0.04 -0.22 0.05 -0.21 0.06 -0.21 0.07 -0.21 0.08 -0.19 0.09 -0.2 0.1 -0.19 0.11 -0.19 0.11 -0.17 0.12 -0.18 0.13 -0.16 0.14 -0.16 0.15 -0.15 0.15 -0.15 0.16 -0.13 0.17 -0.14 0.17 -0.12 0.17 -0.11 0.19 -0.11 0.19 -0.09 0.2 -0.09 0.19 -0.08 0.21 -0.07 0.2 -0.06 0.21 -0.05 0.22 -0.04 0.22 -0.03 0.22 -0.01 0.22 -0.01 0 2.01 -0.12 0.01 -0.12 0.01 -0.11 0.01 -0.12 0.02 -0.11 0.03 -0.11 0.03 -0.11 0.04 -0.11 0.04 -0.1 0.05 -0.1 0.05 -0.1 0.06 -0.1 0.06 -0.1 0.07 -0.09 0.07 -0.09 0.08 -0.08 0.08 -0.08 0.08 -0.07 0.09 -0.08 0.09 -0.06 0.09 -0.07 0.1 -0.06 0.1 -0.05 0.1 -0.05 0.1 -0.04 0.11 -0.04 0.11 -0.03 0.11 -0.03 0.12 -0.02 0.11 -0.01 0.12 -0.01 0.12 -0.01 0.12 0 0 -2.01 0zm2.01 33.85l-2.01 0 0 -33.85 2.01 0 0 33.85zm2.38 4.39l0 0 -0.22 0 -0.22 -0.02 -0.23 -0.03 -0.21 -0.04 -0.21 -0.05 -0.21 -0.06 -0.2 -0.07 -0.2 -0.07 -0.2 -0.09 -0.19 -0.1 -0.18 -0.11 -0.18 -0.11 -0.17 -0.12 -0.17 -0.13 -0.16 -0.14 -0.15 -0.15 -0.14 -0.15 -0.14 -0.16 -0.13 -0.17 -0.13 -0.17 -0.11 -0.18 -0.11 -0.18 -0.09 -0.19 -0.09 -0.19 -0.08 -0.2 -0.07 -0.21 -0.06 -0.21 -0.05 -0.21 -0.04 -0.21 -0.03 -0.23 -0.01 -0.22 -0.01 -0.22 2.01 0 0.01 0.12 0.01 0.12 0.01 0.12 0.02 0.11 0.03 0.12 0.03 0.11 0.04 0.11 0.04 0.11 0.05 0.11 0.05 0.1 0.06 0.1 0.06 0.09 0.07 0.1 0.07 0.09 0.08 0.08 0.08 0.09 0.08 0.08 0.09 0.07 0.08 0.07 0.1 0.07 0.1 0.06 0.1 0.06 0.1 0.05 0.1 0.05 0.11 0.04 0.11 0.04 0.11 0.03 0.12 0.03 0.12 0.02 0.11 0.01 0.12 0.01 0.12 0.01 0 0 0 2.01z"/>
   <path id="1" class="fil1" d="M4.39 41.62l129.59 0c1.86,0 3.38,-1.53 3.38,-3.38l0 -33.85c0,-1.85 -1.54,-3.38 -3.38,-3.38l-129.59 0c-1.84,0 -3.38,1.52 -3.38,3.38l0 33.85c0,1.86 1.52,3.38 3.38,3.38z"/>
  </g>
 </g>
</svg>
