<?xml version="1.0" encoding="UTF-8"?>
<!DOCTYPE svg PUBLIC "-//W3C//DTD SVG 1.1//EN" "http://www.w3.org/Graphics/SVG/1.1/DTD/svg11.dtd">
<!-- Creator: CorelDRAW 2020 (64-Bit) -->
<svg xmlns="http://www.w3.org/2000/svg" xml:space="preserve" width="109px" height="42px" version="1.1" style="shape-rendering:geometricPrecision; text-rendering:geometricPrecision; image-rendering:optimizeQuality; fill-rule:evenodd; clip-rule:evenodd"
viewBox="0 0 107.42 41.51"
 xmlns:xlink="http://www.w3.org/1999/xlink"
 xmlns:xodm="http://www.corel.com/coreldraw/odm/2003">
 <defs>
  <style type="text/css">
   <![CDATA[
    .fil2 {fill:#0056C6}
    .fil1 {fill:#1088E7}
    .fil3 {fill:white}
    .fil0 {fill:#DADBDC;fill-rule:nonzero}
   ]]>
  </style>
    <mask id="id0">
  <linearGradient id="id1" gradientUnits="userSpaceOnUse" x1="57.93" y1="60.51" x2="57.94" y2="22.63">
   <stop offset="0" style="stop-opacity:1; stop-color:white"/>
   <stop offset="1" style="stop-opacity:0; stop-color:white"/>
  </linearGradient>
     <rect style="fill:url(#id1)" x="0.98" y="20.76" width="105.45" height="19.77"/>
    </mask>
    <mask id="id2">
  <linearGradient id="id3" gradientUnits="userSpaceOnUse" x1="49.48" y1="-26.62" x2="49.49" y2="25.3">
   <stop offset="0" style="stop-opacity:1; stop-color:white"/>
   <stop offset="1" style="stop-opacity:0; stop-color:white"/>
  </linearGradient>
     <rect style="fill:url(#id3)" x="0.98" y="0.98" width="105.45" height="27.3"/>
    </mask>
 </defs>
 <g id="Layer_x0020_1">
  <metadata id="CorelCorpID_0Corel-Layer"/>
  <g id="_2000063488432">
   <g>
    <path class="fil0" d="M103.14 39.55l0 1.96 -98.86 0 0 -1.96 98.86 0zm4.28 -2.32l0 0 -0.01 0.22 -0.02 0.21 -0.02 0.22 -0.04 0.21 -0.05 0.21 -0.06 0.2 -0.07 0.19 -0.07 0.2 -0.09 0.19 -0.09 0.19 -0.11 0.17 -0.11 0.18 -0.12 0.16 -0.12 0.16 -0.14 0.16 -0.14 0.15 -0.15 0.14 -0.15 0.13 -0.16 0.13 -0.17 0.12 -0.17 0.11 -0.18 0.11 -0.19 0.09 -0.19 0.09 -0.19 0.08 -0.2 0.06 -0.2 0.06 -0.21 0.05 -0.21 0.04 -0.22 0.02 -0.21 0.02 -0.22 0.01 0 -1.96 0.11 -0.01 0.12 -0.01 0.12 -0.01 0.11 -0.02 0.11 -0.03 0.11 -0.03 0.11 -0.04 0.1 -0.04 0.1 -0.04 0.1 -0.05 0.1 -0.06 0.1 -0.06 0.09 -0.07 0.08 -0.07 0.09 -0.07 0.08 -0.08 0.08 -0.08 0.07 -0.08 0.07 -0.09 0.07 -0.1 0.06 -0.09 0.05 -0.1 0.06 -0.09 0.04 -0.1 0.04 -0.11 0.04 -0.11 0.03 -0.11 0.03 -0.11 0.02 -0.11 0.01 -0.12 0.01 -0.11 0 -0.12 0 0 1.97 0zm-1.97 -32.95l1.97 0 0 32.95 -1.97 0 0 -32.95zm-2.31 -4.28l0 0 0.22 0.01 0.21 0.01 0.21 0.03 0.21 0.04 0.21 0.05 0.2 0.06 0.2 0.06 0.19 0.08 0.19 0.09 0.19 0.09 0.18 0.11 0.17 0.11 0.17 0.12 0.16 0.12 0.15 0.14 0.15 0.14 0.14 0.15 0.14 0.15 0.12 0.16 0.12 0.17 0.12 0.17 0.1 0.18 0.1 0.19 0.08 0.19 0.08 0.19 0.07 0.2 0.06 0.2 0.05 0.21 0.04 0.21 0.02 0.21 0.02 0.22 0.01 0.22 -1.97 0 0 -0.12 -0.01 -0.11 -0.01 -0.12 -0.02 -0.11 -0.03 -0.11 -0.03 -0.11 -0.04 -0.11 -0.04 -0.1 -0.05 -0.1 -0.05 -0.1 -0.05 -0.1 -0.06 -0.09 -0.07 -0.09 -0.07 -0.1 -0.08 -0.08 -0.08 -0.08 -0.08 -0.08 -0.08 -0.07 -0.09 -0.07 -0.09 -0.07 -0.1 -0.06 -0.1 -0.06 -0.1 -0.05 -0.1 -0.05 -0.1 -0.04 -0.11 -0.03 -0.11 -0.04 -0.1 -0.02 -0.12 -0.02 -0.11 -0.02 -0.12 0 -0.11 -0.01 0 0 0 -1.96zm-98.86 1.96l0 -1.96 98.86 0 0 1.96 -98.86 0zm-4.28 2.32l0 0 0.01 -0.22 0.01 -0.22 0.03 -0.21 0.04 -0.21 0.05 -0.21 0.06 -0.21 0.06 -0.19 0.08 -0.2 0.09 -0.19 0.1 -0.18 0.1 -0.18 0.11 -0.17 0.12 -0.17 0.13 -0.16 0.13 -0.16 0.14 -0.14 0.15 -0.14 0.16 -0.14 0.16 -0.13 0.17 -0.11 0.17 -0.12 0.18 -0.1 0.18 -0.09 0.19 -0.09 0.2 -0.08 0.19 -0.07 0.21 -0.05 0.2 -0.05 0.21 -0.04 0.22 -0.03 0.21 -0.01 0.22 -0.01 0 1.96 -0.12 0.01 -0.12 0 -0.1 0.02 -0.12 0.02 -0.11 0.03 -0.11 0.03 -0.1 0.03 -0.11 0.04 -0.1 0.05 -0.1 0.05 -0.1 0.06 -0.09 0.06 -0.09 0.07 -0.1 0.07 -0.08 0.07 -0.08 0.07 -0.08 0.09 -0.07 0.08 -0.07 0.09 -0.07 0.09 -0.06 0.1 -0.06 0.09 -0.05 0.1 -0.04 0.1 -0.05 0.11 -0.03 0.11 -0.03 0.11 -0.03 0.11 -0.02 0.11 -0.02 0.11 0 0.12 -0.01 0.12 0 0 -1.96 0zm1.96 32.95l-1.96 0 0 -32.95 1.96 0 0 32.95zm2.32 4.28l0 0 -0.22 -0.01 -0.22 -0.01 -0.21 -0.03 -0.21 -0.04 -0.21 -0.05 -0.2 -0.06 -0.2 -0.06 -0.2 -0.08 -0.19 -0.09 -0.18 -0.09 -0.18 -0.1 -0.17 -0.12 -0.17 -0.11 -0.16 -0.13 -0.16 -0.14 -0.15 -0.14 -0.13 -0.15 -0.14 -0.15 -0.13 -0.16 -0.12 -0.17 -0.11 -0.17 -0.1 -0.18 -0.1 -0.19 -0.08 -0.19 -0.08 -0.19 -0.07 -0.2 -0.05 -0.2 -0.05 -0.21 -0.04 -0.21 -0.03 -0.22 -0.01 -0.21 -0.01 -0.22 1.96 0 0.01 0.12 0 0.12 0.02 0.11 0.02 0.11 0.03 0.12 0.03 0.11 0.03 0.1 0.04 0.11 0.05 0.1 0.05 0.1 0.06 0.09 0.06 0.1 0.06 0.09 0.07 0.09 0.08 0.08 0.07 0.09 0.08 0.07 0.09 0.07 0.09 0.07 0.09 0.07 0.09 0.06 0.1 0.06 0.1 0.05 0.1 0.04 0.11 0.05 0.1 0.03 0.11 0.03 0.12 0.03 0.11 0.02 0.11 0.01 0.12 0.01 0.12 0.01 0 0 0 1.96z"/>
    <path id="1" class="fil1" d="M4.28 40.53l98.86 0c1.81,0 3.29,-1.5 3.29,-3.3l0 -32.95c0,-1.8 -1.5,-3.3 -3.29,-3.3l-98.86 0c-1.79,0 -3.3,1.49 -3.3,3.3l0 32.95c0,1.81 1.49,3.3 3.3,3.3z"/>
   </g>
   <path class="fil2" style="mask:url(#id0)" d="M0.98 20.76l0 16.47c0,1.81 1.51,3.3 3.3,3.3l98.86 0c1.79,0 3.29,-1.49 3.29,-3.3l0 -16.47 -105.45 0z"/>
   <path class="fil3" style="mask:url(#id2)" d="M106.43 28.28l0 -24c0,-1.81 -1.5,-3.3 -3.29,-3.3l-98.86 0c-1.79,0 -3.3,1.49 -3.3,3.3l0 24 105.45 0z"/>
  </g>
 </g>
</svg>
