<?xml version="1.0" encoding="UTF-8"?>
<!DOCTYPE svg PUBLIC "-//W3C//DTD SVG 1.1//EN" "http://www.w3.org/Graphics/SVG/1.1/DTD/svg11.dtd">
<!-- Creator: CorelDRAW 2020 (64-Bit) -->
<svg xmlns="http://www.w3.org/2000/svg" xml:space="preserve" width="99px" height="42px" version="1.1" style="shape-rendering:geometricPrecision; text-rendering:geometricPrecision; image-rendering:optimizeQuality; fill-rule:evenodd; clip-rule:evenodd"
viewBox="0 0 97.42 41.26"
 xmlns:xlink="http://www.w3.org/1999/xlink"
 xmlns:xodm="http://www.corel.com/coreldraw/odm/2003">
 <defs>
  <style type="text/css">
   <![CDATA[
    .fil3 {fill:#E16600}
    .fil1 {fill:#F8A200}
    .fil2 {fill:white}
    .fil0 {fill:#DADBDC;fill-rule:nonzero}
   ]]>
  </style>
    <mask id="id0">
  <linearGradient id="id1" gradientUnits="userSpaceOnUse" x1="44.88" y1="-26.46" x2="44.89" y2="25.15">
   <stop offset="0" style="stop-opacity:1; stop-color:white"/>
   <stop offset="1" style="stop-opacity:0; stop-color:white"/>
  </linearGradient>
     <rect style="fill:url(#id1)" x="0.98" y="0.98" width="95.47" height="27.14"/>
    </mask>
    <mask id="id2">
  <linearGradient id="id3" gradientUnits="userSpaceOnUse" x1="52.54" y1="60.16" x2="52.54" y2="22.49">
   <stop offset="0" style="stop-opacity:1; stop-color:white"/>
   <stop offset="1" style="stop-opacity:0; stop-color:white"/>
  </linearGradient>
     <rect style="fill:url(#id3)" x="0.98" y="20.63" width="95.47" height="19.66"/>
    </mask>
 </defs>
 <g id="Layer_x0020_1">
  <metadata id="CorelCorpID_0Corel-Layer"/>
  <g id="_2000359312048">
   <g>
    <path class="fil0" d="M93.17 39.31l0 1.95 -88.92 0 0 -1.95 88.92 0zm4.25 -2.3l0 0 0 0.22 -0.02 0.21 -0.02 0.21 -0.04 0.22 -0.05 0.2 -0.06 0.2 -0.07 0.2 -0.07 0.19 -0.09 0.19 -0.09 0.19 -0.1 0.17 -0.11 0.17 -0.12 0.17 -0.13 0.16 -0.13 0.15 -0.14 0.15 -0.15 0.14 -0.15 0.14 -0.17 0.13 -0.16 0.11 -0.17 0.11 -0.18 0.11 -0.18 0.09 -0.19 0.09 -0.19 0.07 -0.2 0.07 -0.21 0.06 -0.2 0.05 -0.21 0.03 -0.22 0.03 -0.21 0.02 -0.22 0 0 -1.95 0.12 0 0.12 -0.01 0.11 -0.01 0.11 -0.02 0.12 -0.03 0.1 -0.03 0.11 -0.03 0.1 -0.05 0.1 -0.04 0.11 -0.06 0.09 -0.05 0.09 -0.06 0.1 -0.07 0.08 -0.06 0.09 -0.08 0.08 -0.08 0.07 -0.07 0.08 -0.09 0.07 -0.09 0.06 -0.09 0.06 -0.09 0.06 -0.1 0.05 -0.1 0.04 -0.1 0.05 -0.1 0.03 -0.11 0.03 -0.11 0.03 -0.11 0.02 -0.11 0.01 -0.11 0.01 -0.12 0 -0.12 0 0 1.95 0zm-1.95 -32.76l1.95 0 0 32.76 -1.95 0 0 -32.76zm-2.3 -4.25l0 0 0.22 0.01 0.21 0.01 0.22 0.03 0.2 0.04 0.21 0.04 0.2 0.06 0.2 0.07 0.19 0.08 0.19 0.08 0.18 0.1 0.18 0.1 0.17 0.11 0.17 0.12 0.16 0.13 0.15 0.13 0.15 0.14 0.14 0.15 0.14 0.15 0.12 0.16 0.12 0.17 0.11 0.17 0.1 0.18 0.1 0.18 0.09 0.19 0.07 0.19 0.07 0.2 0.06 0.2 0.05 0.21 0.03 0.21 0.03 0.21 0.02 0.21 0 0.22 -1.95 0 0 -0.11 -0.01 -0.12 -0.01 -0.11 -0.02 -0.11 -0.03 -0.11 -0.03 -0.12 -0.03 -0.1 -0.05 -0.1 -0.04 -0.11 -0.06 -0.09 -0.05 -0.1 -0.06 -0.09 -0.07 -0.09 -0.07 -0.09 -0.07 -0.09 -0.08 -0.08 -0.08 -0.08 -0.08 -0.07 -0.09 -0.07 -0.09 -0.06 -0.1 -0.06 -0.1 -0.06 -0.1 -0.05 -0.1 -0.05 -0.1 -0.04 -0.11 -0.04 -0.1 -0.03 -0.11 -0.02 -0.12 -0.02 -0.11 -0.02 -0.11 -0.01 -0.12 0 0 0 0 -1.95zm-88.92 1.95l0 -1.95 88.92 0 0 1.95 -88.92 0zm-4.25 2.3l0 0 0.01 -0.22 0.01 -0.21 0.03 -0.21 0.04 -0.21 0.05 -0.21 0.05 -0.2 0.07 -0.2 0.08 -0.19 0.09 -0.19 0.09 -0.19 0.11 -0.17 0.11 -0.17 0.12 -0.17 0.12 -0.16 0.13 -0.15 0.15 -0.15 0.15 -0.14 0.15 -0.14 0.16 -0.12 0.16 -0.12 0.18 -0.11 0.18 -0.1 0.18 -0.1 0.19 -0.08 0.19 -0.08 0.2 -0.07 0.2 -0.06 0.2 -0.04 0.21 -0.04 0.21 -0.03 0.22 -0.01 0.21 -0.01 0 1.95 -0.12 0 -0.11 0.01 -0.11 0.02 -0.11 0.02 -0.11 0.02 -0.11 0.03 -0.11 0.04 -0.1 0.04 -0.1 0.05 -0.1 0.05 -0.1 0.05 -0.09 0.06 -0.09 0.07 -0.09 0.07 -0.09 0.07 -0.08 0.08 -0.07 0.08 -0.08 0.08 -0.07 0.09 -0.06 0.09 -0.06 0.1 -0.06 0.1 -0.05 0.09 -0.05 0.1 -0.04 0.11 -0.04 0.11 -0.03 0.1 -0.02 0.11 -0.02 0.11 -0.02 0.12 -0.01 0.12 0 0.11 0 0 -1.95 0zm1.95 32.76l-1.95 0 0 -32.76 1.95 0 0 32.76zm2.3 4.25l0 0 -0.21 0 -0.22 -0.02 -0.22 -0.03 -0.2 -0.03 -0.21 -0.05 -0.2 -0.06 -0.2 -0.07 -0.19 -0.07 -0.19 -0.09 -0.18 -0.09 -0.18 -0.1 -0.17 -0.12 -0.17 -0.11 -0.16 -0.13 -0.15 -0.13 -0.15 -0.15 -0.14 -0.14 -0.14 -0.16 -0.12 -0.16 -0.12 -0.16 -0.11 -0.17 -0.1 -0.18 -0.1 -0.19 -0.08 -0.18 -0.08 -0.2 -0.07 -0.2 -0.06 -0.2 -0.04 -0.2 -0.04 -0.21 -0.03 -0.22 -0.01 -0.21 -0.01 -0.22 1.95 0 0 0.12 0.01 0.12 0.02 0.11 0.02 0.11 0.02 0.11 0.03 0.11 0.04 0.11 0.04 0.1 0.05 0.11 0.05 0.09 0.05 0.1 0.06 0.09 0.07 0.09 0.07 0.09 0.07 0.08 0.08 0.09 0.08 0.07 0.08 0.07 0.09 0.07 0.09 0.07 0.1 0.06 0.09 0.05 0.1 0.06 0.1 0.04 0.11 0.04 0.1 0.04 0.11 0.03 0.11 0.03 0.12 0.02 0.11 0.01 0.11 0.01 0.12 0 0 0 0 1.95z"/>
    <path id="1" class="fil1" d="M4.25 40.29l88.92 0c1.81,0 3.28,-1.48 3.28,-3.28l0 -32.76c0,-1.79 -1.49,-3.27 -3.28,-3.27l-88.92 0c-1.78,0 -3.27,1.47 -3.27,3.27l0 32.76c0,1.8 1.47,3.28 3.27,3.28z"/>
   </g>
   <path class="fil2" style="mask:url(#id0)" d="M96.45 28.12l0 -23.87c0,-1.79 -1.49,-3.27 -3.28,-3.27l-88.92 0c-1.78,0 -3.27,1.48 -3.27,3.27l0 23.87 95.47 0z"/>
   <path class="fil3" style="mask:url(#id2)" d="M0.98 20.63l0 16.38c0,1.8 1.49,3.28 3.27,3.28l88.92 0c1.79,0 3.28,-1.48 3.28,-3.28l0 -16.38 -95.47 0z"/>
  </g>
 </g>
</svg>
