<?xml version="1.0" encoding="UTF-8"?>
<!DOCTYPE svg PUBLIC "-//W3C//DTD SVG 1.1//EN" "http://www.w3.org/Graphics/SVG/1.1/DTD/svg11.dtd">
<!-- Creator: CorelDRAW 2020 (64-Bit) -->
<svg xmlns="http://www.w3.org/2000/svg" xml:space="preserve" width="188px" height="42px" version="1.1" style="shape-rendering:geometricPrecision; text-rendering:geometricPrecision; image-rendering:optimizeQuality; fill-rule:evenodd; clip-rule:evenodd"
viewBox="0 0 186.41 41.7"
 xmlns:xlink="http://www.w3.org/1999/xlink"
 xmlns:xodm="http://www.corel.com/coreldraw/odm/2003">
 <defs>
  <style type="text/css">
   <![CDATA[
    .fil1 {fill:white}
    .fil0 {fill:#DADBDC;fill-rule:nonzero}
   ]]>
  </style>
 </defs>
 <g id="Layer_x0020_1">
  <metadata id="CorelCorpID_0Corel-Layer"/>
  <g>
   <path class="fil0" d="M182.11 39.72l0 1.98 -177.81 0 0 -1.98 177.81 0zm4.3 -2.32l0 0 -0.01 0.22 -0.01 0.21 -0.03 0.22 -0.04 0.21 -0.05 0.21 -0.06 0.2 -0.07 0.2 -0.07 0.19 -0.09 0.19 -0.09 0.19 -0.11 0.18 -0.11 0.17 -0.12 0.17 -0.12 0.16 -0.14 0.15 -0.14 0.16 -0.15 0.14 -0.15 0.13 -0.17 0.13 -0.17 0.12 -0.17 0.11 -0.18 0.11 -0.18 0.1 -0.19 0.08 -0.2 0.08 -0.2 0.07 -0.21 0.06 -0.2 0.05 -0.22 0.04 -0.21 0.02 -0.22 0.02 -0.22 0.01 0 -1.98 0.12 0 0.12 -0.01 0.11 -0.01 0.12 -0.02 0.11 -0.03 0.11 -0.03 0.1 -0.04 0.11 -0.04 0.1 -0.05 0.1 -0.05 0.1 -0.05 0.1 -0.07 0.09 -0.06 0.09 -0.07 0.08 -0.08 0.08 -0.07 0.08 -0.08 0.07 -0.09 0.07 -0.09 0.07 -0.09 0.06 -0.1 0.06 -0.1 0.05 -0.09 0.04 -0.11 0.05 -0.1 0.03 -0.11 0.03 -0.11 0.03 -0.11 0.02 -0.11 0.02 -0.12 0 -0.11 0.01 -0.12 0 0 1.97 0zm-1.97 -33.1l1.97 0 0 33.1 -1.97 0 0 -33.1zm-2.33 -4.3l0 0 0.22 0.01 0.22 0.01 0.21 0.03 0.21 0.04 0.21 0.05 0.2 0.06 0.2 0.07 0.2 0.07 0.18 0.09 0.19 0.1 0.18 0.1 0.17 0.11 0.17 0.12 0.16 0.13 0.16 0.13 0.15 0.15 0.14 0.15 0.13 0.15 0.13 0.16 0.12 0.17 0.12 0.18 0.1 0.17 0.1 0.19 0.08 0.19 0.08 0.19 0.07 0.2 0.06 0.2 0.05 0.22 0.04 0.21 0.02 0.21 0.02 0.22 0.01 0.22 -1.97 0 -0.01 -0.12 0 -0.11 -0.02 -0.12 -0.02 -0.11 -0.03 -0.11 -0.03 -0.11 -0.03 -0.11 -0.05 -0.1 -0.04 -0.11 -0.06 -0.09 -0.05 -0.1 -0.07 -0.1 -0.06 -0.09 -0.07 -0.09 -0.08 -0.09 -0.08 -0.08 -0.08 -0.08 -0.08 -0.07 -0.09 -0.07 -0.1 -0.07 -0.09 -0.06 -0.1 -0.06 -0.1 -0.05 -0.1 -0.05 -0.11 -0.04 -0.1 -0.03 -0.11 -0.04 -0.11 -0.02 -0.11 -0.02 -0.12 -0.02 -0.11 -0.01 -0.12 0 0 0 0 -1.97zm-177.81 1.97l0 -1.97 177.81 0 0 1.97 -177.81 0zm-4.3 2.33l0 0 0.01 -0.22 0.01 -0.22 0.03 -0.21 0.04 -0.22 0.05 -0.21 0.06 -0.2 0.07 -0.2 0.07 -0.2 0.09 -0.19 0.1 -0.18 0.1 -0.18 0.12 -0.18 0.12 -0.17 0.13 -0.16 0.13 -0.15 0.14 -0.15 0.15 -0.14 0.16 -0.14 0.16 -0.12 0.17 -0.12 0.17 -0.12 0.18 -0.1 0.19 -0.09 0.19 -0.09 0.19 -0.08 0.2 -0.06 0.2 -0.06 0.21 -0.05 0.21 -0.04 0.22 -0.03 0.21 -0.01 0.22 -0.01 0 1.97 -0.12 0 -0.12 0.01 -0.11 0.02 -0.11 0.02 -0.11 0.02 -0.11 0.03 -0.11 0.04 -0.1 0.04 -0.1 0.05 -0.1 0.05 -0.1 0.06 -0.1 0.06 -0.09 0.07 -0.09 0.06 -0.09 0.08 -0.08 0.08 -0.07 0.08 -0.08 0.08 -0.07 0.09 -0.07 0.1 -0.06 0.09 -0.06 0.1 -0.05 0.1 -0.04 0.1 -0.05 0.11 -0.03 0.1 -0.04 0.11 -0.02 0.11 -0.02 0.11 -0.02 0.12 -0.01 0.12 0 0.12 0 0 -1.97 0zm1.97 33.1l-1.97 0 0 -33.1 1.97 0 0 33.1zm2.33 4.3l0 0 -0.22 -0.01 -0.22 -0.02 -0.22 -0.02 -0.21 -0.04 -0.2 -0.05 -0.21 -0.06 -0.2 -0.07 -0.19 -0.07 -0.19 -0.09 -0.19 -0.1 -0.18 -0.1 -0.17 -0.11 -0.17 -0.12 -0.16 -0.13 -0.16 -0.14 -0.15 -0.14 -0.14 -0.14 -0.14 -0.16 -0.12 -0.16 -0.12 -0.17 -0.11 -0.17 -0.11 -0.19 -0.09 -0.18 -0.09 -0.19 -0.08 -0.2 -0.07 -0.2 -0.05 -0.2 -0.05 -0.21 -0.04 -0.21 -0.03 -0.22 -0.01 -0.21 -0.01 -0.22 1.97 0 0 0.12 0.01 0.12 0.02 0.11 0.02 0.11 0.02 0.12 0.04 0.11 0.03 0.1 0.04 0.11 0.05 0.1 0.05 0.1 0.06 0.1 0.06 0.09 0.07 0.1 0.06 0.08 0.08 0.09 0.08 0.08 0.08 0.08 0.08 0.07 0.09 0.07 0.09 0.07 0.1 0.06 0.09 0.05 0.1 0.05 0.11 0.05 0.1 0.04 0.11 0.04 0.11 0.03 0.11 0.03 0.12 0.02 0.11 0.01 0.12 0.01 0.12 0 0 0 0 1.98z"/>
   <path id="1" class="fil1" d="M4.3 40.71l177.81 0c1.82,0 3.31,-1.51 3.31,-3.31l0 -33.1c0,-1.81 -1.51,-3.31 -3.31,-3.31l-177.81 0c-1.8,0 -3.31,1.49 -3.31,3.31l0 33.1c0,1.82 1.49,3.31 3.31,3.31z"/>
  </g>
 </g>
</svg>
