<?xml version="1.0" encoding="UTF-8"?>
<!DOCTYPE svg PUBLIC "-//W3C//DTD SVG 1.1//EN" "http://www.w3.org/Graphics/SVG/1.1/DTD/svg11.dtd">
<!-- Creator: CorelDRAW 2020 (64-Bit) -->
<svg xmlns="http://www.w3.org/2000/svg" xml:space="preserve" width="92px" height="37px" version="1.1" style="shape-rendering:geometricPrecision; text-rendering:geometricPrecision; image-rendering:optimizeQuality; fill-rule:evenodd; clip-rule:evenodd"
viewBox="0 0 90.35 36.34"
 xmlns:xlink="http://www.w3.org/1999/xlink"
 xmlns:xodm="http://www.corel.com/coreldraw/odm/2003">
 <defs>
  <style type="text/css">
   <![CDATA[
    .fil1 {fill:#0056C6}
    .fil0 {fill:#1088E7}
    .fil2 {fill:white}
   ]]>
  </style>
    <mask id="id0">
  <linearGradient id="id1" gradientUnits="userSpaceOnUse" x1="48.79" y1="57.18" x2="48.8" y2="17.67">
   <stop offset="0" style="stop-opacity:1; stop-color:white"/>
   <stop offset="1" style="stop-opacity:0; stop-color:white"/>
  </linearGradient>
     <rect style="fill:url(#id1)" y="15.72" width="90.35" height="20.62"/>
    </mask>
    <mask id="id2">
  <linearGradient id="id3" gradientUnits="userSpaceOnUse" x1="41.55" y1="-28.79" x2="41.56" y2="25.36">
   <stop offset="0" style="stop-opacity:1; stop-color:white"/>
   <stop offset="1" style="stop-opacity:0; stop-color:white"/>
  </linearGradient>
     <rect style="fill:url(#id3)" width="90.35" height="28.48"/>
    </mask>
 </defs>
 <g id="Layer_x0020_1">
  <metadata id="CorelCorpID_0Corel-Layer"/>
  <g id="_1999749244208">
   <path class="fil0" d="M3.44 36.34l83.47 0c1.89,0 3.44,-1.56 3.44,-3.44l0 -29.46c0,-1.88 -1.57,-3.44 -3.44,-3.44l-83.47 0c-1.87,0 -3.44,1.55 -3.44,3.44l0 29.46c0,1.89 1.55,3.44 3.44,3.44z"/>
   <path class="fil1" style="mask:url(#id0)" d="M0 15.72l0 17.18c0,1.88 1.57,3.44 3.44,3.44l83.47 0c1.87,0 3.44,-1.56 3.44,-3.44l0 -17.18 -90.35 0z"/>
   <path class="fil2" style="mask:url(#id2)" d="M90.35 28.48l0 -25.04c0,-1.89 -1.57,-3.44 -3.44,-3.44l-83.47 0c-1.87,0 -3.44,1.56 -3.44,3.44l0 25.04 90.35 0z"/>
  </g>
 </g>
</svg>
