<?xml version="1.0" encoding="UTF-8"?>
<!DOCTYPE svg PUBLIC "-//W3C//DTD SVG 1.1//EN" "http://www.w3.org/Graphics/SVG/1.1/DTD/svg11.dtd">
<!-- Creator: CorelDRAW 2020 (64-Bit) -->
<svg xmlns="http://www.w3.org/2000/svg" xml:space="preserve" width="18px" height="18px" version="1.1" style="shape-rendering:geometricPrecision; text-rendering:geometricPrecision; image-rendering:optimizeQuality; fill-rule:evenodd; clip-rule:evenodd"
viewBox="0 0 16.61 16.61"
 xmlns:xlink="http://www.w3.org/1999/xlink"
 xmlns:xodm="http://www.corel.com/coreldraw/odm/2003">
 <defs>
  <style type="text/css">
   <![CDATA[
    .str0 {stroke:#1088E7;stroke-width:1.72;stroke-linecap:round;stroke-linejoin:round;stroke-miterlimit:2.61313}
    .fil0 {fill:none}
    .fil1 {fill:#1088E7;fill-rule:nonzero}
   ]]>
  </style>
 </defs>
 <g id="Layer_x0020_1">
  <metadata id="CorelCorpID_0Corel-Layer"/>
  <g id="_1608718401840">
   <g>
    <path class="fil0 str0" d="M8.3 0.86c-4.11,0 -7.44,3.33 -7.44,7.44 0,4.11 3.33,7.45 7.44,7.45 4.11,0 7.45,-3.34 7.45,-7.45 0,-4.11 -3.34,-7.44 -7.45,-7.44z"/>
   </g>
   <g id="_1608718403424">
    <g>
     <path class="fil1" d="M9.13 5l-1.65 0c0,-0.48 0.37,-0.87 0.82,-0.87 0.46,0 0.83,0.39 0.83,0.87zm0 6.61l-1.65 0 0 -6.61 1.65 0 0 6.61zm-1.65 0l1.65 0c0,0.48 -0.37,0.86 -0.83,0.86 -0.45,0 -0.82,-0.38 -0.82,-0.86z"/>
    </g>
    <g>
     <path class="fil1" d="M5 7.44l0 1.73c-0.46,0 -0.83,-0.39 -0.83,-0.87 0,-0.47 0.37,-0.86 0.83,-0.86zm6.61 0l0 1.73 -6.61 0 0 -1.73 6.61 0zm0 1.73l0 -1.73c0.46,0 0.83,0.39 0.83,0.86 0,0.48 -0.37,0.87 -0.83,0.87z"/>
    </g>
   </g>
  </g>
 </g>
</svg>
