<?xml version="1.0" encoding="UTF-8"?>
<!DOCTYPE svg PUBLIC "-//W3C//DTD SVG 1.1//EN" "http://www.w3.org/Graphics/SVG/1.1/DTD/svg11.dtd">
<!-- Creator: CorelDRAW 2020 (64-Bit) -->
<svg xmlns="http://www.w3.org/2000/svg" xml:space="preserve" width="304px" height="44px" version="1.1" style="shape-rendering:geometricPrecision; text-rendering:geometricPrecision; image-rendering:optimizeQuality; fill-rule:evenodd; clip-rule:evenodd"
viewBox="0 0 302.33 43.83"
 xmlns:xlink="http://www.w3.org/1999/xlink"
 xmlns:xodm="http://www.corel.com/coreldraw/odm/2003">
 <defs>
  <style type="text/css">
   <![CDATA[
    .fil1 {fill:white}
    .fil0 {fill:#E1E1E2;fill-rule:nonzero}
   ]]>
  </style>
 </defs>
 <g id="Layer_x0020_1">
  <metadata id="CorelCorpID_0Corel-Layer"/>
  <g>
   <path class="fil0" d="M297.81 41.76l0 2.07 -293.29 0 0 -2.07 293.29 0zm4.52 -2.45l0 0 -0.01 0.23 -0.02 0.23 -0.03 0.22 -0.04 0.23 -0.05 0.22 -0.06 0.21 -0.07 0.21 -0.08 0.2 -0.09 0.2 -0.1 0.2 -0.11 0.19 -0.12 0.18 -0.12 0.18 -0.14 0.16 -0.14 0.17 -0.15 0.16 -0.16 0.15 -0.16 0.14 -0.17 0.13 -0.17 0.13 -0.19 0.12 -0.19 0.11 -0.19 0.1 -0.2 0.09 -0.21 0.08 -0.21 0.07 -0.21 0.07 -0.22 0.05 -0.23 0.04 -0.22 0.02 -0.23 0.02 -0.23 0.01 0 -2.07 0.12 -0.01 0.13 -0.01 0.12 -0.01 0.12 -0.02 0.12 -0.03 0.11 -0.03 0.12 -0.04 0.11 -0.05 0.1 -0.04 0.11 -0.06 0.1 -0.06 0.1 -0.06 0.1 -0.07 0.09 -0.08 0.09 -0.07 0.09 -0.09 0.08 -0.08 0.07 -0.09 0.08 -0.09 0.07 -0.1 0.06 -0.1 0.06 -0.11 0.05 -0.1 0.05 -0.1 0.05 -0.12 0.04 -0.11 0.03 -0.12 0.03 -0.11 0.02 -0.12 0.01 -0.12 0.01 -0.12 0.01 -0.13 0 0 2.07 0zm-2.07 -34.79l2.07 0 0 34.79 -2.07 0 0 -34.79zm-2.45 -4.52l0 0 0.23 0.01 0.23 0.01 0.22 0.03 0.22 0.04 0.22 0.05 0.22 0.07 0.2 0.07 0.21 0.08 0.2 0.09 0.19 0.1 0.19 0.11 0.19 0.12 0.17 0.13 0.17 0.13 0.17 0.14 0.15 0.15 0.15 0.16 0.14 0.16 0.14 0.17 0.12 0.18 0.12 0.18 0.11 0.19 0.1 0.19 0.1 0.2 0.08 0.21 0.07 0.21 0.06 0.21 0.05 0.22 0.04 0.23 0.03 0.22 0.02 0.22 0.01 0.24 -2.07 0 -0.01 -0.12 -0.01 -0.13 -0.01 -0.12 -0.02 -0.12 -0.03 -0.11 -0.04 -0.12 -0.04 -0.11 -0.04 -0.11 -0.05 -0.11 -0.05 -0.11 -0.06 -0.1 -0.07 -0.1 -0.07 -0.09 -0.07 -0.1 -0.08 -0.09 -0.08 -0.08 -0.09 -0.09 -0.09 -0.07 -0.09 -0.08 -0.1 -0.07 -0.1 -0.06 -0.1 -0.06 -0.11 -0.06 -0.1 -0.05 -0.11 -0.04 -0.12 -0.04 -0.11 -0.03 -0.12 -0.03 -0.11 -0.02 -0.13 -0.02 -0.12 -0.01 -0.12 0 0 0 0 -2.07zm-293.29 2.07l0 -2.07 293.29 0 0 2.07 -293.29 0zm-4.52 2.45l0 0 0.01 -0.24 0.01 -0.22 0.03 -0.23 0.04 -0.22 0.06 -0.22 0.06 -0.22 0.07 -0.21 0.08 -0.2 0.09 -0.2 0.1 -0.2 0.11 -0.19 0.12 -0.18 0.13 -0.18 0.13 -0.16 0.15 -0.17 0.15 -0.16 0.15 -0.14 0.17 -0.15 0.17 -0.13 0.17 -0.13 0.19 -0.11 0.18 -0.11 0.2 -0.1 0.2 -0.09 0.2 -0.08 0.21 -0.07 0.22 -0.07 0.21 -0.05 0.22 -0.04 0.23 -0.03 0.23 -0.01 0.23 -0.01 0 2.07 -0.13 0 -0.12 0.01 -0.11 0.02 -0.12 0.02 -0.12 0.03 -0.12 0.03 -0.11 0.04 -0.11 0.04 -0.11 0.05 -0.1 0.06 -0.11 0.06 -0.1 0.06 -0.09 0.07 -0.09 0.07 -0.1 0.08 -0.08 0.08 -0.09 0.09 -0.07 0.09 -0.08 0.09 -0.07 0.1 -0.06 0.1 -0.06 0.1 -0.05 0.1 -0.05 0.11 -0.05 0.12 -0.04 0.11 -0.03 0.11 -0.03 0.12 -0.02 0.12 -0.02 0.12 -0.01 0.12 0 0.13 0 0 -2.07 0zm2.07 34.79l-2.07 0 0 -34.79 2.07 0 0 34.79zm2.45 4.52l0 0 -0.23 -0.01 -0.23 -0.01 -0.23 -0.03 -0.22 -0.05 -0.22 -0.04 -0.21 -0.07 -0.21 -0.07 -0.21 -0.08 -0.2 -0.09 -0.2 -0.1 -0.18 -0.11 -0.18 -0.12 -0.18 -0.12 -0.17 -0.14 -0.17 -0.14 -0.15 -0.15 -0.15 -0.15 -0.15 -0.17 -0.13 -0.17 -0.12 -0.17 -0.12 -0.19 -0.11 -0.19 -0.1 -0.19 -0.09 -0.2 -0.08 -0.21 -0.08 -0.21 -0.06 -0.21 -0.05 -0.22 -0.04 -0.22 -0.03 -0.23 -0.01 -0.23 -0.01 -0.23 2.07 0 0 0.13 0.01 0.12 0.02 0.12 0.02 0.12 0.03 0.12 0.03 0.11 0.04 0.12 0.04 0.11 0.05 0.11 0.06 0.1 0.06 0.11 0.06 0.09 0.07 0.1 0.07 0.09 0.08 0.09 0.08 0.09 0.09 0.08 0.09 0.08 0.09 0.07 0.1 0.07 0.1 0.06 0.1 0.06 0.1 0.06 0.11 0.04 0.11 0.05 0.11 0.04 0.12 0.03 0.12 0.03 0.12 0.02 0.12 0.01 0.12 0.01 0.13 0.01 0 0 0 2.07z"/>
   <path id="1" class="fil1" d="M4.52 42.79l293.29 0c1.92,0 3.48,-1.58 3.48,-3.48l0 -34.79c0,-1.9 -1.59,-3.48 -3.48,-3.48l-293.29 0c-1.9,0 -3.48,1.56 -3.48,3.48l0 34.79c0,1.92 1.56,3.48 3.48,3.48z"/>
  </g>
 </g>
</svg>
