<?xml version="1.0" encoding="UTF-8"?>
<!DOCTYPE svg PUBLIC "-//W3C//DTD SVG 1.1//EN" "http://www.w3.org/Graphics/SVG/1.1/DTD/svg11.dtd">
<!-- Creator: CorelDRAW 2020 (64-Bit) -->
<svg xmlns="http://www.w3.org/2000/svg" xml:space="preserve" width="202px" height="44px" version="1.1" style="shape-rendering:geometricPrecision; text-rendering:geometricPrecision; image-rendering:optimizeQuality; fill-rule:evenodd; clip-rule:evenodd"
viewBox="0 0 200.33 43.7"
 xmlns:xlink="http://www.w3.org/1999/xlink"
 xmlns:xodm="http://www.corel.com/coreldraw/odm/2003">
 <defs>
  <style type="text/css">
   <![CDATA[
    .fil1 {fill:white}
    .fil0 {fill:#E1E1E2;fill-rule:nonzero}
   ]]>
  </style>
 </defs>
 <g id="Layer_x0020_1">
  <metadata id="CorelCorpID_0Corel-Layer"/>
  <g>
   <path class="fil0" d="M195.83 41.64l0 2.06 -191.33 0 0 -2.06 191.33 0zm4.5 -2.44l0 0 0 0.23 -0.02 0.22 -0.03 0.23 -0.04 0.22 -0.05 0.22 -0.06 0.21 -0.07 0.21 -0.08 0.2 -0.09 0.2 -0.11 0.2 -0.1 0.18 -0.12 0.19 -0.13 0.17 -0.13 0.17 -0.14 0.16 -0.15 0.16 -0.16 0.15 -0.16 0.14 -0.17 0.14 -0.17 0.12 -0.18 0.12 -0.19 0.11 -0.2 0.1 -0.2 0.09 -0.2 0.08 -0.21 0.08 -0.22 0.06 -0.22 0.05 -0.22 0.04 -0.22 0.03 -0.23 0.02 -0.23 0 0 -2.06 0.12 -0.01 0.12 -0.01 0.13 -0.01 0.12 -0.02 0.11 -0.03 0.12 -0.04 0.11 -0.03 0.11 -0.05 0.11 -0.05 0.1 -0.05 0.1 -0.06 0.1 -0.07 0.1 -0.06 0.09 -0.08 0.09 -0.07 0.09 -0.09 0.08 -0.08 0.08 -0.09 0.07 -0.1 0.07 -0.09 0.06 -0.1 0.06 -0.11 0.06 -0.1 0.04 -0.1 0.05 -0.12 0.04 -0.11 0.03 -0.12 0.03 -0.11 0.02 -0.12 0.01 -0.12 0.01 -0.12 0.01 -0.12 0 0 2.06 0zm-2.06 -34.7l2.06 0 0 34.7 -2.06 0 0 -34.7zm-2.44 -4.5l0 0 0.23 0.01 0.23 0.01 0.22 0.03 0.22 0.04 0.22 0.06 0.21 0.06 0.21 0.07 0.2 0.08 0.2 0.09 0.19 0.1 0.19 0.11 0.19 0.12 0.17 0.12 0.17 0.14 0.16 0.14 0.16 0.15 0.15 0.15 0.14 0.17 0.13 0.17 0.13 0.17 0.12 0.18 0.11 0.19 0.1 0.2 0.09 0.2 0.08 0.2 0.07 0.21 0.07 0.21 0.05 0.22 0.04 0.22 0.03 0.23 0.02 0.22 0 0.23 -2.06 0 -0.01 -0.12 -0.01 -0.12 -0.01 -0.12 -0.02 -0.12 -0.03 -0.11 -0.04 -0.12 -0.03 -0.11 -0.05 -0.11 -0.05 -0.11 -0.05 -0.1 -0.06 -0.1 -0.07 -0.11 -0.06 -0.09 -0.08 -0.09 -0.08 -0.09 -0.08 -0.09 -0.09 -0.08 -0.08 -0.08 -0.1 -0.08 -0.1 -0.06 -0.1 -0.07 -0.1 -0.06 -0.11 -0.05 -0.1 -0.05 -0.11 -0.05 -0.11 -0.03 -0.12 -0.04 -0.11 -0.03 -0.12 -0.02 -0.12 -0.01 -0.12 -0.01 -0.12 0 0 0 0 -2.07zm-191.33 2.07l0 -2.07 191.33 0 0 2.07 -191.33 0zm-4.5 2.43l0 0 0.01 -0.23 0.01 -0.23 0.03 -0.22 0.04 -0.22 0.06 -0.23 0.06 -0.21 0.07 -0.21 0.08 -0.2 0.09 -0.2 0.1 -0.2 0.11 -0.18 0.12 -0.19 0.13 -0.17 0.13 -0.17 0.14 -0.16 0.15 -0.16 0.16 -0.15 0.16 -0.14 0.17 -0.13 0.18 -0.13 0.18 -0.11 0.19 -0.11 0.2 -0.1 0.2 -0.09 0.2 -0.08 0.21 -0.08 0.21 -0.06 0.21 -0.05 0.22 -0.04 0.23 -0.03 0.23 -0.01 0.22 -0.01 0 2.07 -0.12 0 -0.12 0.01 -0.12 0.01 -0.11 0.02 -0.12 0.03 -0.12 0.03 -0.11 0.04 -0.11 0.05 -0.11 0.05 -0.1 0.05 -0.1 0.06 -0.1 0.06 -0.1 0.07 -0.09 0.07 -0.09 0.08 -0.09 0.09 -0.08 0.08 -0.08 0.09 -0.07 0.09 -0.07 0.1 -0.07 0.1 -0.06 0.1 -0.05 0.11 -0.05 0.1 -0.04 0.11 -0.04 0.12 -0.04 0.11 -0.02 0.12 -0.03 0.11 -0.01 0.13 -0.01 0.12 0 0.12 0 0 -2.07 0zm2.07 34.7l-2.07 0 0 -34.7 2.07 0 0 34.7zm2.43 4.5l0 0 -0.23 0 -0.22 -0.02 -0.23 -0.03 -0.22 -0.04 -0.22 -0.05 -0.21 -0.06 -0.21 -0.07 -0.2 -0.08 -0.21 -0.09 -0.19 -0.11 -0.19 -0.1 -0.18 -0.12 -0.18 -0.13 -0.17 -0.13 -0.16 -0.14 -0.16 -0.15 -0.15 -0.16 -0.14 -0.16 -0.13 -0.17 -0.13 -0.18 -0.12 -0.18 -0.1 -0.19 -0.1 -0.19 -0.09 -0.2 -0.08 -0.21 -0.08 -0.21 -0.06 -0.21 -0.05 -0.22 -0.04 -0.22 -0.03 -0.23 -0.01 -0.22 -0.01 -0.23 2.07 0 0 0.12 0.01 0.13 0.01 0.11 0.03 0.13 0.02 0.11 0.04 0.12 0.03 0.11 0.05 0.11 0.05 0.11 0.05 0.11 0.06 0.1 0.06 0.1 0.07 0.09 0.07 0.09 0.08 0.09 0.08 0.09 0.09 0.08 0.09 0.08 0.09 0.07 0.1 0.07 0.1 0.06 0.1 0.06 0.1 0.06 0.11 0.04 0.11 0.05 0.11 0.04 0.12 0.03 0.12 0.03 0.12 0.02 0.11 0.01 0.13 0.01 0.12 0.01 0 0 0 2.06z"/>
   <path id="1" class="fil1" d="M4.5 42.67l191.33 0c1.91,0 3.47,-1.58 3.47,-3.47l0 -34.7c0,-1.89 -1.59,-3.47 -3.47,-3.47l-191.33 0c-1.88,0 -3.47,1.56 -3.47,3.47l0 34.7c0,1.91 1.57,3.47 3.47,3.47z"/>
  </g>
 </g>
</svg>
