<?xml version="1.0" encoding="UTF-8"?>
<!DOCTYPE svg PUBLIC "-//W3C//DTD SVG 1.1//EN" "http://www.w3.org/Graphics/SVG/1.1/DTD/svg11.dtd">
<!-- Creator: CorelDRAW 2020 (64-Bit) -->
<svg xmlns="http://www.w3.org/2000/svg" xml:space="preserve" width="113px" height="43px" version="1.1" style="shape-rendering:geometricPrecision; text-rendering:geometricPrecision; image-rendering:optimizeQuality; fill-rule:evenodd; clip-rule:evenodd"
viewBox="0 0 111.38 42.3"
 xmlns:xlink="http://www.w3.org/1999/xlink"
 xmlns:xodm="http://www.corel.com/coreldraw/odm/2003">
 <defs>
  <style type="text/css">
   <![CDATA[
    .fil1 {fill:white}
    .fil0 {fill:#E1E1E2;fill-rule:nonzero}
   ]]>
  </style>
 </defs>
 <g id="Layer_x0020_1">
  <metadata id="CorelCorpID_0Corel-Layer"/>
  <g>
   <path class="fil0" d="M107.02 40.3l0 2 -102.66 0 0 -2 102.66 0zm4.36 -2.36l0 0 0 0.22 -0.02 0.22 -0.03 0.22 -0.04 0.21 -0.05 0.21 -0.05 0.21 -0.07 0.2 -0.08 0.2 -0.09 0.19 -0.1 0.19 -0.1 0.18 -0.11 0.18 -0.13 0.17 -0.12 0.16 -0.14 0.16 -0.14 0.15 -0.16 0.15 -0.15 0.13 -0.17 0.14 -0.17 0.12 -0.17 0.11 -0.19 0.11 -0.18 0.09 -0.2 0.09 -0.2 0.08 -0.2 0.07 -0.21 0.06 -0.21 0.05 -0.22 0.04 -0.21 0.02 -0.22 0.02 -0.23 0.01 0 -2 0.12 0 0.12 -0.01 0.12 -0.02 0.12 -0.02 0.11 -0.03 0.11 -0.03 0.11 -0.03 0.11 -0.05 0.1 -0.04 0.1 -0.06 0.1 -0.06 0.1 -0.06 0.09 -0.06 0.09 -0.07 0.09 -0.08 0.08 -0.08 0.08 -0.08 0.07 -0.09 0.07 -0.09 0.07 -0.09 0.06 -0.1 0.06 -0.1 0.05 -0.1 0.05 -0.1 0.04 -0.11 0.04 -0.11 0.03 -0.11 0.03 -0.11 0.02 -0.12 0.01 -0.11 0.01 -0.12 0 -0.12 0 0 2 0zm-2 -33.58l2 0 0 33.58 -2 0 0 -33.58zm-2.36 -4.36l0 0 0.23 0.01 0.22 0.01 0.21 0.03 0.21 0.04 0.22 0.05 0.2 0.06 0.21 0.07 0.2 0.08 0.19 0.09 0.18 0.09 0.18 0.11 0.18 0.11 0.17 0.12 0.17 0.14 0.15 0.13 0.16 0.14 0.14 0.16 0.14 0.15 0.12 0.16 0.13 0.18 0.11 0.17 0.11 0.19 0.1 0.19 0.08 0.19 0.08 0.19 0.07 0.21 0.06 0.2 0.05 0.21 0.04 0.22 0.03 0.22 0.02 0.22 0 0.22 -2 0 0 -0.12 -0.01 -0.12 -0.01 -0.11 -0.02 -0.12 -0.03 -0.11 -0.03 -0.11 -0.04 -0.11 -0.04 -0.1 -0.05 -0.11 -0.05 -0.1 -0.06 -0.1 -0.06 -0.1 -0.07 -0.09 -0.07 -0.09 -0.08 -0.09 -0.08 -0.08 -0.08 -0.08 -0.09 -0.08 -0.09 -0.07 -0.09 -0.06 -0.1 -0.07 -0.1 -0.05 -0.1 -0.06 -0.11 -0.05 -0.1 -0.04 -0.11 -0.03 -0.11 -0.04 -0.11 -0.02 -0.11 -0.02 -0.12 -0.02 -0.12 -0.01 -0.12 0 0 0 0 -2zm-102.66 2l0 -2 102.66 0 0 2 -102.66 0zm-4.36 2.36l0 0 0.01 -0.23 0.01 -0.22 0.03 -0.21 0.04 -0.22 0.05 -0.21 0.06 -0.21 0.07 -0.2 0.08 -0.2 0.09 -0.19 0.1 -0.19 0.1 -0.18 0.11 -0.18 0.13 -0.17 0.13 -0.16 0.14 -0.16 0.14 -0.15 0.15 -0.14 0.16 -0.14 0.16 -0.13 0.17 -0.12 0.18 -0.12 0.18 -0.1 0.19 -0.1 0.19 -0.08 0.2 -0.08 0.2 -0.07 0.21 -0.06 0.21 -0.05 0.21 -0.04 0.22 -0.03 0.22 -0.01 0.22 -0.01 0 2 -0.12 0 -0.12 0.01 -0.11 0.02 -0.11 0.02 -0.12 0.02 -0.11 0.03 -0.11 0.04 -0.1 0.04 -0.11 0.05 -0.1 0.05 -0.1 0.06 -0.1 0.06 -0.09 0.07 -0.09 0.07 -0.08 0.07 -0.09 0.08 -0.08 0.09 -0.07 0.08 -0.07 0.09 -0.07 0.1 -0.07 0.1 -0.05 0.09 -0.06 0.1 -0.04 0.11 -0.05 0.11 -0.03 0.11 -0.04 0.11 -0.02 0.11 -0.02 0.11 -0.02 0.12 -0.01 0.12 0 0.12 0 0 -2 0zm2 33.58l-2 0 0 -33.58 2 0 0 33.58zm2.36 4.36l0 0 -0.22 -0.01 -0.22 -0.01 -0.23 -0.03 -0.21 -0.04 -0.21 -0.05 -0.2 -0.06 -0.21 -0.07 -0.2 -0.08 -0.19 -0.08 -0.19 -0.1 -0.18 -0.11 -0.17 -0.11 -0.18 -0.12 -0.16 -0.13 -0.16 -0.14 -0.15 -0.14 -0.14 -0.15 -0.14 -0.16 -0.13 -0.17 -0.12 -0.17 -0.12 -0.17 -0.1 -0.19 -0.1 -0.18 -0.09 -0.2 -0.07 -0.2 -0.07 -0.2 -0.06 -0.21 -0.05 -0.2 -0.04 -0.22 -0.03 -0.22 -0.01 -0.22 -0.01 -0.22 2 0 0 0.12 0.01 0.12 0.02 0.11 0.02 0.12 0.02 0.12 0.04 0.11 0.03 0.11 0.04 0.1 0.05 0.11 0.05 0.1 0.06 0.1 0.06 0.09 0.07 0.1 0.07 0.09 0.07 0.08 0.08 0.08 0.09 0.08 0.08 0.08 0.09 0.07 0.1 0.07 0.09 0.06 0.1 0.05 0.1 0.06 0.11 0.04 0.1 0.05 0.11 0.03 0.11 0.03 0.12 0.03 0.12 0.02 0.11 0.02 0.12 0.01 0.12 0 0 0 0 2z"/>
   <path id="1" class="fil1" d="M4.36 41.3l102.66 0c1.85,0 3.36,-1.53 3.36,-3.36l0 -33.58c0,-1.84 -1.53,-3.36 -3.36,-3.36l-102.66 0c-1.82,0 -3.36,1.51 -3.36,3.36l0 33.58c0,1.85 1.51,3.36 3.36,3.36z"/>
  </g>
 </g>
</svg>
