<?xml version="1.0" encoding="iso-8859-1"?>
<!-- Generator: Adobe Illustrator 19.0.0, SVG Export Plug-In . SVG Version: 6.00 Build 0)  -->
<svg version="1.1" id="Layer_1" xmlns="http://www.w3.org/2000/svg" xmlns:xlink="http://www.w3.org/1999/xlink" x="0px" y="0px"
	 viewBox="0 0 330 330" style="enable-background:new 0 0 330 330;" xml:space="preserve">
<path id="XMLID_6_" d="M239.999,75H90c-49.626,0-90,40.374-90,90s40.374,90,90,90h149.999c49.626,0,90-40.374,90-90
	S289.625,75,239.999,75z M30,165c0-33.084,26.916-60,60-60s60,26.916,60,60s-26.916,60-60,60S30,198.084,30,165z M239.999,225
	h-82.98c14.281-15.935,22.98-36.969,22.98-60s-8.699-44.065-22.98-60h82.98c33.084,0,60,26.916,60,60S273.083,225,239.999,225z"/>
<g>
</g>
<g>
</g>
<g>
</g>
<g>
</g>
<g>
</g>
<g>
</g>
<g>
</g>
<g>
</g>
<g>
</g>
<g>
</g>
<g>
</g>
<g>
</g>
<g>
</g>
<g>
</g>
<g>
</g>
</svg>
